<svg width="112" height="66" viewBox="0 0 112 66" fill="none" xmlns="http://www.w3.org/2000/svg">
<g filter="url(#filter0_f_95_144)">
<path d="M79.7467 60.962C56.3543 60.962 55.9999 44.6582 45.367 44.6582C34.7341 44.6582 34.0252 52.1013 21.6201 52.1013C9.21508 52.1013 4.96191 37.5696 4.96191 31.8987C4.96191 26.2279 11.3417 14.1772 23.0379 14.1772C34.7341 14.1772 36.8606 24.1013 46.4303 24.1013C55.9999 24.1013 57.4176 4.96204 79.7467 4.96204C96.4049 4.96204 106.683 18.4304 106.683 31.8987C106.683 48.0837 96.7488 60.962 79.7467 60.962Z" fill="url(#paint0_radial_95_144)" fill-opacity="0.9"/>
</g>
<g filter="url(#filter1_f_95_144)" style="mix-blend-mode:plus-lighter">
<path d="M39.3422 32.9621C39.3422 41.5749 30.498 48.557 22.5477 48.557C14.5974 48.557 8.15234 41.5749 8.15234 32.9621C8.15234 24.3492 14.5974 17.3671 22.5477 17.3671C30.498 17.3671 39.3422 24.3492 39.3422 32.9621Z" fill="white"/>
</g>
<g filter="url(#filter2_f_95_144)" style="mix-blend-mode:plus-lighter">
<path d="M102.43 32.962C102.43 46.2728 92.0955 57.0633 79.3472 57.0633C66.5988 57.0633 54.2275 46.2728 54.2275 32.962C54.2275 19.6513 66.5988 8.86078 79.3472 8.86078C92.0955 8.86078 102.43 19.6513 102.43 32.962Z" fill="white"/>
</g>
<defs>
<filter id="filter0_f_95_144" x="-0.000110149" y="1.19209e-05" width="111.646" height="65.924" filterUnits="userSpaceOnUse" color-interpolation-filters="sRGB">
<feFlood flood-opacity="0" result="BackgroundImageFix"/>
<feBlend mode="normal" in="SourceGraphic" in2="BackgroundImageFix" result="shape"/>
<feGaussianBlur stdDeviation="2.48101" result="effect1_foregroundBlur_95_144"/>
</filter>
<filter id="filter1_f_95_144" x="2.48146" y="11.6962" width="42.5312" height="42.5317" filterUnits="userSpaceOnUse" color-interpolation-filters="sRGB">
<feFlood flood-opacity="0" result="BackgroundImageFix"/>
<feBlend mode="normal" in="SourceGraphic" in2="BackgroundImageFix" result="shape"/>
<feGaussianBlur stdDeviation="2.83544" result="effect1_foregroundBlur_95_144"/>
</filter>
<filter id="filter2_f_95_144" x="48.5567" y="3.18989" width="59.5439" height="59.5443" filterUnits="userSpaceOnUse" color-interpolation-filters="sRGB">
<feFlood flood-opacity="0" result="BackgroundImageFix"/>
<feBlend mode="normal" in="SourceGraphic" in2="BackgroundImageFix" result="shape"/>
<feGaussianBlur stdDeviation="2.83544" result="effect1_foregroundBlur_95_144"/>
</filter>
<radialGradient id="paint0_radial_95_144" cx="0" cy="0" r="1" gradientUnits="userSpaceOnUse" gradientTransform="translate(46.0758 34.0253) rotate(88.0021) scale(30.4995 60.7997)">
<stop stop-color="white"/>
<stop offset="1" stop-color="white" stop-opacity="0.73"/>
</radialGradient>
</defs>
</svg>
