<svg width="291" height="416" viewBox="0 0 291 416" fill="none" xmlns="http://www.w3.org/2000/svg">
<rect width="286" height="412" transform="translate(0 3.26013) rotate(-0.653128)" fill="#DEC7ED"/>
<path d="M52.1773 329.291C51.5035 329.299 51.0787 328.874 51.0707 328.171L51.016 323.376L46.4763 316.66C46.3075 316.418 46.2463 316.194 46.2436 315.949C46.237 315.373 46.7009 314.948 47.3161 314.941C47.7653 314.936 48.0211 315.099 48.2996 315.545L52.0662 321.264L52.1346 321.264L55.7698 315.46C56.0285 315.018 56.2999 314.839 56.7296 314.834C57.335 314.827 57.8085 315.241 57.815 315.808C57.8177 316.052 57.7617 316.277 57.5986 316.533L53.2034 323.351L53.258 328.146C53.2661 328.849 52.8608 329.283 52.1773 329.291ZM61.5916 329.223C58.6523 329.256 56.6958 327.257 56.6581 323.947C56.6204 320.646 58.5406 318.602 61.4701 318.569C64.3996 318.536 66.3659 320.535 66.4035 323.835C66.4412 327.146 64.5308 329.189 61.5916 329.223ZM61.5717 327.484C63.2318 327.466 64.2813 326.145 64.2552 323.86C64.2293 321.585 63.1402 320.288 61.4899 320.307C59.8396 320.326 58.7804 321.647 58.8063 323.922C58.8324 326.207 59.9215 327.503 61.5717 327.484ZM71.2494 329.103C69.0132 329.128 67.6295 327.689 67.6027 325.336L67.5376 319.623C67.5296 318.92 67.9545 318.495 68.5794 318.488C69.1946 318.481 69.6388 318.896 69.6468 319.599L69.7073 324.901C69.7251 326.464 70.4768 327.295 71.9318 327.278C73.4551 327.261 74.361 326.196 74.3428 324.595L74.2852 319.546C74.2772 318.843 74.7118 318.418 75.327 318.411C75.952 318.404 76.3864 318.819 76.3944 319.522L76.4907 327.969C76.4982 328.623 76.1026 329.047 75.4972 329.054C74.8918 329.061 74.4768 328.646 74.4695 328.002L74.4597 327.142L74.4109 327.143C73.8585 328.38 72.8216 329.085 71.2494 329.103ZM83.2004 328.781C82.5169 328.789 82.1019 328.364 82.0938 327.661L81.959 315.835C81.951 315.132 82.3563 314.698 83.0398 314.69L86.9165 314.646C91.1057 314.598 93.6154 317.148 93.666 321.591C93.7168 326.044 91.2761 328.689 87.0771 328.737L83.2004 328.781ZM84.2725 326.874L86.8505 326.845C89.8386 326.811 91.468 324.966 91.4301 321.636C91.3922 318.316 89.7112 316.499 86.7329 316.533L84.155 316.562L84.2725 326.874ZM99.5985 328.789C96.6592 328.823 94.7027 326.824 94.665 323.513C94.6273 320.213 96.5475 318.169 99.477 318.136C102.407 318.102 104.373 320.102 104.41 323.402C104.448 326.712 102.538 328.756 99.5985 328.789ZM99.5787 327.051C101.239 327.032 102.288 325.712 102.262 323.427C102.236 321.151 101.147 319.855 99.4968 319.874C97.8465 319.893 96.7873 321.214 96.8133 323.489C96.8393 325.774 97.9284 327.07 99.5787 327.051ZM106.756 328.698C106.132 328.705 105.697 328.29 105.689 327.597L105.593 319.131C105.585 318.486 105.971 318.062 106.586 318.055C107.192 318.048 107.616 318.463 107.624 319.117L107.633 319.928L107.682 319.927C108.225 318.749 109.291 318.034 110.873 318.016C113.139 317.99 114.454 319.42 114.481 321.774L114.546 327.496C114.554 328.189 114.119 328.614 113.494 328.621C112.879 328.628 112.435 328.213 112.427 327.52L112.366 322.208C112.349 320.665 111.617 319.824 110.152 319.84C108.668 319.857 107.723 320.923 107.741 322.515L107.798 327.573C107.806 328.266 107.372 328.691 106.756 328.698ZM116.43 319.652C115.932 319.657 115.596 319.349 115.601 318.88C115.599 318.763 115.618 318.684 115.617 318.635L116.201 315.015C116.301 314.379 116.65 314.121 117.207 314.115C117.792 314.108 118.197 314.446 118.203 315.002C118.205 315.178 118.187 315.344 118.131 315.55L117.31 318.899C117.198 319.399 116.928 319.646 116.43 319.652ZM121.052 325.888L120.982 319.746L120.24 319.755C119.693 319.761 119.358 319.452 119.352 318.935C119.346 318.407 119.674 318.091 120.221 318.085L120.963 318.076L120.946 316.553C120.938 315.879 121.353 315.425 121.998 315.418C122.632 315.411 123.057 315.855 123.065 316.529L123.082 318.052L124.283 318.039C124.83 318.032 125.166 318.351 125.172 318.868C125.178 319.386 124.849 319.702 124.302 319.708L123.101 319.722L123.166 325.396C123.175 326.216 123.463 326.584 124.225 326.634L124.391 326.641C124.997 326.693 125.303 326.934 125.308 327.432C125.316 328.067 124.831 328.394 123.796 328.406L123.689 328.407C121.96 328.427 121.072 327.588 121.052 325.888ZM131.502 328.387C130.819 328.394 130.404 327.969 130.396 327.266L130.257 315.128C130.249 314.425 130.654 313.991 131.338 313.983C132.012 313.976 132.437 314.4 132.445 315.104L132.509 320.767L132.597 320.766L138.452 314.342C138.741 314.016 139.003 313.886 139.345 313.882C139.941 313.875 140.376 314.31 140.382 314.876C140.385 315.15 140.28 315.385 140.049 315.642L135.601 320.371L140.649 326.329C140.926 326.658 141.047 326.959 141.05 327.233C141.057 327.828 140.603 328.293 140.008 328.299C139.578 328.304 139.293 328.151 138.956 327.745L134.026 321.893L132.541 323.521L132.583 327.241C132.591 327.945 132.176 328.379 131.502 328.387ZM143.446 328.28C142.821 328.287 142.386 327.872 142.378 327.179L142.282 318.712C142.274 318.068 142.66 317.644 143.275 317.636C143.881 317.63 144.305 318.045 144.313 318.699L144.322 319.509L144.371 319.509C144.914 318.331 145.98 317.615 147.562 317.597C149.828 317.572 151.143 319.002 151.17 321.355L151.235 327.078C151.243 327.771 150.808 328.196 150.183 328.203C149.568 328.21 149.124 327.795 149.116 327.102L149.055 321.79C149.038 320.247 148.306 319.405 146.841 319.422C145.357 319.439 144.412 320.505 144.43 322.096L144.487 327.155C144.495 327.848 144.061 328.273 143.446 328.28ZM157.303 328.132C154.363 328.165 152.407 326.166 152.369 322.855C152.331 319.555 154.252 317.511 157.181 317.478C160.111 317.445 162.077 319.444 162.114 322.744C162.152 326.055 160.242 328.098 157.303 328.132ZM157.283 326.393C158.943 326.374 159.992 325.054 159.966 322.769C159.94 320.494 158.851 319.197 157.201 319.216C155.551 319.235 154.491 320.556 154.517 322.831C154.543 325.116 155.632 326.412 157.283 326.393ZM166.453 328.018C165.759 328.025 165.365 327.708 165.142 326.968L162.706 318.919C162.625 318.686 162.594 318.5 162.592 318.325C162.586 317.778 162.992 317.412 163.607 317.405C164.134 317.399 164.45 317.678 164.593 318.272L166.523 325.643L166.562 325.643L168.432 318.307C168.571 317.68 168.987 317.343 169.632 317.336C170.267 317.329 170.68 317.656 170.834 318.279L172.88 325.571L172.929 325.57L174.69 318.157C174.82 317.56 175.12 317.273 175.647 317.267C176.262 317.26 176.667 317.617 176.673 318.164C176.675 318.34 176.648 318.516 176.582 318.761L174.331 326.863C174.134 327.588 173.708 327.935 173.015 327.943C172.282 327.951 171.869 327.643 171.665 326.894L169.663 320.1L169.615 320.1L167.788 326.938C167.601 327.663 167.165 328.009 166.453 328.018ZM185.68 327.769C185.007 327.777 184.632 327.449 184.418 326.699L181.014 315.067C180.942 314.805 180.911 314.6 180.909 314.405C180.902 313.809 181.327 313.413 181.971 313.406C182.548 313.399 182.903 313.708 183.046 314.302L185.702 324.556L185.78 324.555L188.419 314.436C188.615 313.653 188.983 313.326 189.656 313.318C190.311 313.311 190.695 313.639 190.899 314.379L193.778 324.464L193.856 324.463L196.268 314.151C196.408 313.544 196.765 313.237 197.332 313.231C197.976 313.224 198.41 313.609 198.417 314.205C198.419 314.4 198.392 314.606 198.317 314.87L195.189 326.586C194.983 327.331 194.615 327.667 193.951 327.675C193.258 327.683 192.883 327.374 192.66 326.615L189.737 316.941L189.639 316.942L186.947 326.68C186.741 327.435 186.364 327.761 185.68 327.769ZM200.993 327.624C200.377 327.631 199.933 327.216 199.925 326.523L199.786 314.268C199.778 313.603 200.173 313.169 200.818 313.162C201.472 313.154 201.868 313.58 201.875 314.244L201.928 318.872L201.977 318.872C202.53 317.664 203.645 316.958 205.207 316.94C207.463 316.915 208.827 318.403 208.854 320.727L208.919 326.42C208.927 327.113 208.492 327.538 207.867 327.545C207.252 327.552 206.808 327.138 206.8 326.444L206.74 321.161C206.722 319.648 205.95 318.748 204.466 318.765C202.904 318.783 201.959 319.868 201.977 321.489L202.034 326.499C202.042 327.192 201.608 327.617 200.993 327.624ZM213.58 327.47C211.568 327.493 210.138 326.26 210.117 324.414C210.097 322.617 211.471 321.498 213.901 321.334L216.721 321.135L216.712 320.344C216.699 319.202 215.92 318.527 214.631 318.542C213.615 318.554 212.945 318.922 212.37 319.867C212.159 320.182 211.887 320.321 211.516 320.326C210.989 320.332 210.604 319.984 210.598 319.457C210.595 319.242 210.651 319.007 210.775 318.771C211.299 317.603 212.843 316.843 214.689 316.822C217.179 316.794 218.786 318.094 218.809 320.155L218.88 326.355C218.888 327.019 218.472 327.424 217.877 327.431C217.291 327.438 216.886 327.062 216.859 326.437L216.849 325.568L216.801 325.568C216.218 326.718 214.918 327.455 213.58 327.47ZM214.137 325.794C215.612 325.777 216.762 324.749 216.747 323.411L216.737 322.6L214.2 322.785C212.942 322.888 212.235 323.452 212.245 324.331C212.255 325.23 213.014 325.807 214.137 325.794ZM221.128 324.748L221.058 318.605L220.316 318.614C219.769 318.62 219.433 318.311 219.427 317.794C219.421 317.267 219.75 316.95 220.297 316.944L221.039 316.936L221.021 315.412C221.014 314.738 221.429 314.284 222.073 314.277C222.708 314.27 223.133 314.714 223.14 315.388L223.158 316.911L224.359 316.898C224.906 316.891 225.241 317.21 225.247 317.727C225.253 318.245 224.925 318.561 224.378 318.568L223.177 318.581L223.242 324.255C223.251 325.075 223.538 325.443 224.301 325.493L224.467 325.501C225.073 325.552 225.378 325.793 225.384 326.291C225.391 326.926 224.907 327.253 223.872 327.265L223.764 327.267C222.036 327.286 221.147 326.447 221.128 324.748ZM235.074 327.206C234.39 327.214 233.975 326.789 233.967 326.086L233.839 314.866L230.382 314.905C229.777 314.912 229.363 314.546 229.356 313.969C229.349 313.393 229.755 313.018 230.361 313.011L239.452 312.907C240.057 312.9 240.472 313.267 240.478 313.843C240.485 314.419 240.079 314.795 239.473 314.801L236.026 314.841L236.154 326.061C236.162 326.764 235.747 327.198 235.074 327.206ZM243.502 327.149C240.562 327.182 238.606 325.183 238.568 321.873C238.53 318.572 240.451 316.529 243.38 316.495C246.31 316.462 248.276 318.461 248.314 321.762C248.351 325.072 246.441 327.115 243.502 327.149ZM243.482 325.411C245.142 325.392 246.191 324.071 246.165 321.786C246.139 319.511 245.05 318.215 243.4 318.233C241.75 318.252 240.69 319.573 240.716 321.848C240.742 324.133 241.832 325.43 243.482 325.411ZM70.8211 360.924C70.1376 360.932 69.7225 360.507 69.7145 359.804L69.5797 347.979C69.5717 347.275 69.9769 346.841 70.6605 346.833L77.6522 346.754C78.2576 346.747 78.672 347.113 78.6786 347.689C78.6851 348.265 78.2792 348.641 77.6738 348.648L71.7757 348.715L71.8226 352.826L77.3984 352.763C77.9746 352.756 78.3789 353.103 78.3853 353.66C78.3915 354.207 78.005 354.572 77.4191 354.579L71.8433 354.643L71.8932 359.017L77.7912 358.95C78.3967 358.943 78.811 359.31 78.8176 359.886C78.8242 360.462 78.4183 360.838 77.8128 360.844L70.8211 360.924ZM83.2543 360.958C81.2427 360.981 79.8126 359.747 79.7915 357.902C79.771 356.105 81.1451 354.986 83.575 354.821L86.3952 354.623L86.3862 353.832C86.3732 352.69 85.5939 352.015 84.305 352.03C83.2894 352.041 82.6197 352.41 82.0445 353.354C81.8333 353.669 81.5614 353.809 81.1903 353.813C80.663 353.819 80.2782 353.472 80.2722 352.945C80.2697 352.73 80.3256 352.495 80.4499 352.259C80.9737 351.091 82.5179 350.331 84.3635 350.31C86.8536 350.282 88.4603 351.582 88.4838 353.642L88.5545 359.843C88.562 360.507 88.1467 360.912 87.551 360.919C86.9651 360.926 86.5604 360.549 86.5338 359.925L86.5239 359.056L86.475 359.056C85.8924 360.205 84.5921 360.943 83.2543 360.958ZM83.8114 359.282C85.2859 359.265 86.4364 358.236 86.4211 356.898L86.4119 356.088L83.8748 356.273C82.6161 356.375 81.9096 356.94 81.9196 357.819C81.9299 358.717 82.6885 359.295 83.8114 359.282ZM90.8023 358.235L90.7323 352.093L89.9901 352.102C89.4433 352.108 89.1077 351.799 89.1018 351.282C89.0958 350.754 89.4243 350.438 89.9711 350.432L90.7132 350.423L90.6959 348.9C90.6882 348.226 91.103 347.772 91.7475 347.765C92.3822 347.758 92.8072 348.202 92.8149 348.876L92.8322 350.399L94.0333 350.385C94.5802 350.379 94.9159 350.698 94.9218 351.215C94.9277 351.733 94.5992 352.049 94.0524 352.055L92.8513 352.069L92.916 357.742C92.9253 358.563 93.2127 358.931 93.9751 358.98L94.1412 358.988C94.7473 359.04 95.0528 359.281 95.0584 359.779C95.0657 360.413 94.5811 360.741 93.546 360.753L93.4386 360.754C91.7102 360.774 90.8217 359.934 90.8023 358.235ZM101.252 360.734C100.569 360.741 100.154 360.316 100.146 359.613L100.009 347.632C100.001 346.929 100.406 346.494 101.09 346.486L107.925 346.409C108.54 346.401 108.955 346.768 108.961 347.344C108.968 347.92 108.552 348.296 107.947 348.303L102.205 348.368L102.256 352.821L107.48 352.762C108.066 352.755 108.47 353.112 108.477 353.668C108.483 354.235 108.087 354.601 107.501 354.607L102.277 354.667L102.333 359.588C102.341 360.291 101.926 360.726 101.252 360.734ZM114.27 360.624C111.33 360.658 109.374 358.658 109.336 355.348C109.299 352.048 111.219 350.004 114.148 349.971C117.078 349.937 119.044 351.936 119.082 355.237C119.119 358.547 117.209 360.591 114.27 360.624ZM114.25 358.886C115.91 358.867 116.959 357.546 116.933 355.261C116.907 352.986 115.818 351.69 114.168 351.709C112.518 351.728 111.459 353.048 111.485 355.324C111.511 357.609 112.6 358.905 114.25 358.886ZM121.428 360.533C120.793 360.54 120.368 360.115 120.36 359.432L120.264 350.965C120.257 350.321 120.662 349.896 121.258 349.89C121.843 349.883 122.258 350.298 122.266 350.943L122.276 351.821L122.325 351.821C122.595 350.665 123.533 349.883 124.558 349.871C124.929 349.867 125.214 349.952 125.391 350.116C125.588 350.27 125.679 350.523 125.683 350.855C125.687 351.187 125.582 351.432 125.379 351.601C125.166 351.789 124.855 351.88 124.415 351.885C122.97 351.911 122.395 352.885 122.41 354.164L122.47 359.408C122.477 360.091 122.053 360.526 121.428 360.533ZM135.46 360.344C134.787 360.351 134.362 359.926 134.354 359.223L134.299 354.429L129.759 347.712C129.591 347.47 129.53 347.246 129.527 347.002C129.52 346.426 129.984 346.001 130.599 345.994C131.049 345.989 131.304 346.152 131.583 346.598L135.349 352.317L135.418 352.316L139.053 346.513C139.312 346.07 139.583 345.891 140.013 345.886C140.618 345.88 141.092 346.294 141.098 346.86C141.101 347.105 141.045 347.33 140.882 347.586L136.487 354.404L136.541 359.198C136.549 359.901 136.144 360.336 135.46 360.344ZM144.875 360.275C141.936 360.309 139.979 358.31 139.941 354.999C139.904 351.699 141.824 349.655 144.753 349.622C147.683 349.588 149.649 351.588 149.687 354.888C149.724 358.198 147.814 360.242 144.875 360.275ZM144.855 358.537C146.515 358.518 147.564 357.198 147.538 354.913C147.512 352.637 146.423 351.341 144.773 351.36C143.123 351.379 142.064 352.699 142.09 354.975C142.116 357.26 143.205 358.556 144.855 358.537ZM154.533 360.155C152.296 360.181 150.913 358.742 150.886 356.388L150.821 350.676C150.813 349.973 151.238 349.548 151.863 349.541C152.478 349.534 152.922 349.949 152.93 350.652L152.99 355.954C153.008 357.516 153.76 358.348 155.215 358.331C156.738 358.314 157.644 357.249 157.626 355.647L157.568 350.599C157.56 349.896 157.995 349.471 158.61 349.464C159.235 349.457 159.67 349.872 159.678 350.575L159.774 359.021C159.781 359.676 159.386 360.1 158.78 360.107C158.175 360.114 157.76 359.699 157.753 359.054L157.743 358.195L157.694 358.195C157.142 359.432 156.105 360.138 154.533 360.155ZM162.531 360.064C161.896 360.072 161.471 359.647 161.463 358.963L161.367 350.497C161.359 349.852 161.765 349.428 162.36 349.421C162.946 349.414 163.361 349.83 163.369 350.474L163.379 351.353L163.427 351.352C163.697 350.197 164.636 349.415 165.661 349.403C166.032 349.399 166.316 349.483 166.494 349.647C166.691 349.801 166.782 350.054 166.786 350.386C166.79 350.718 166.685 350.964 166.482 351.132C166.269 351.32 165.958 351.411 165.518 351.416C164.073 351.443 163.498 352.416 163.513 353.695L163.572 358.939C163.58 359.623 163.155 360.057 162.531 360.064ZM177.619 359.941C173.586 359.987 171.015 357.194 170.963 352.673C170.913 348.23 173.41 345.428 177.424 345.382C180.05 345.352 182.174 346.636 182.977 348.512C183.108 348.823 183.14 349.067 183.143 349.311C183.149 349.887 182.773 350.282 182.177 350.289C181.679 350.295 181.354 350.064 181.074 349.52C180.345 348.034 179.086 347.277 177.455 347.296C174.76 347.326 173.161 349.317 173.199 352.628C173.238 355.997 174.931 358.058 177.617 358.027C179.902 358.001 181.467 356.518 181.472 354.379L181.469 354.135L178.627 354.168C178.061 354.174 177.666 353.827 177.66 353.3C177.654 352.763 178.041 352.407 178.607 352.4L182.513 352.356C183.187 352.348 183.612 352.773 183.62 353.486L183.624 353.837C183.666 357.558 181.456 359.897 177.619 359.941ZM189.591 359.766C186.651 359.799 184.695 357.8 184.657 354.489C184.619 351.189 186.54 349.145 189.469 349.112C192.399 349.079 194.365 351.078 194.403 354.378C194.44 357.689 192.53 359.732 189.591 359.766ZM189.571 358.027C191.231 358.008 192.28 356.688 192.254 354.403C192.228 352.128 191.139 350.831 189.489 350.85C187.839 350.869 186.779 352.19 186.805 354.465C186.831 356.75 187.921 358.046 189.571 358.027ZM198.702 359.642C196.69 359.665 195.26 358.431 195.239 356.586C195.218 354.789 196.592 353.67 199.022 353.505L201.842 353.307L201.833 352.516C201.82 351.374 201.041 350.699 199.752 350.714C198.737 350.725 198.067 351.094 197.492 352.038C197.28 352.353 197.009 352.493 196.638 352.497C196.11 352.503 195.725 352.156 195.719 351.629C195.717 351.414 195.773 351.179 195.897 350.943C196.421 349.775 197.965 349.015 199.811 348.994C202.301 348.966 203.907 350.266 203.931 352.326L204.002 358.527C204.009 359.191 203.594 359.596 202.998 359.603C202.412 359.61 202.008 359.233 201.981 358.609L201.971 357.74L201.922 357.74C201.34 358.889 200.039 359.627 198.702 359.642ZM199.259 357.966C200.733 357.949 201.884 356.92 201.868 355.582L201.859 354.772L199.322 354.957C198.063 355.059 197.357 355.624 197.367 356.503C197.377 357.401 198.136 357.979 199.259 357.966ZM206.797 359.56C206.182 359.567 205.738 359.152 205.73 358.458L205.59 346.223C205.583 345.53 206.017 345.105 206.632 345.098C207.248 345.091 207.692 345.506 207.7 346.199L207.839 358.434C207.847 359.128 207.412 359.553 206.797 359.56ZM213.409 359.494C211.387 359.517 209.893 358.704 209.391 357.45C209.321 357.294 209.3 357.148 209.298 357.011C209.292 356.484 209.669 356.167 210.197 356.161C210.548 356.157 210.853 356.32 211.121 356.707C211.658 357.531 212.277 357.896 213.498 357.882C214.699 357.868 215.503 357.341 215.494 356.492C215.486 355.818 215.081 355.461 213.975 355.21L212.35 354.848C210.352 354.402 209.365 353.436 209.348 351.972C209.327 350.116 210.924 348.867 213.365 348.84C215.221 348.818 216.755 349.748 217.062 350.956C217.082 351.073 217.103 351.17 217.104 351.268C217.109 351.737 216.82 352.052 216.293 352.058C215.951 352.062 215.647 351.949 215.438 351.619C214.97 350.843 214.341 350.44 213.306 350.452C212.173 350.465 211.398 351.03 211.407 351.831C211.414 352.475 211.918 352.919 213.004 353.16L214.6 353.513C216.764 353.987 217.603 354.749 217.62 356.272C217.642 358.176 215.947 359.465 213.409 359.494ZM220.05 344.945C220.646 344.938 221.05 345.275 221.056 345.832C221.058 346.008 221.041 346.164 220.984 346.37L220.163 349.729C220.052 350.228 219.781 350.476 219.283 350.481C218.785 350.487 218.45 350.178 218.454 349.709C218.453 349.592 218.471 349.514 218.471 349.465L219.055 345.845C219.155 345.209 219.494 344.951 220.05 344.945ZM224.064 344.899C224.65 344.892 225.054 345.23 225.06 345.786C225.062 345.962 225.044 346.118 224.988 346.324L224.147 349.684C224.026 350.183 223.765 350.43 223.267 350.436C222.769 350.441 222.424 350.133 222.438 349.664C222.437 349.547 222.455 349.468 222.455 349.42L223.058 345.799C223.168 345.163 223.507 344.905 224.064 344.899Z" fill="#5C5C5C"/>
<path d="M118.165 133.485C121.128 137.622 133.856 140.751 139.761 132.875C146.279 135.902 156.961 134.819 165.612 129.865C166.815 129.176 167.951 128.311 168.638 127.107C170.191 124.39 170.186 120.644 167.234 115.151C162.281 103.183 153.498 92.7277 149.952 88.5234C149.227 87.8769 144.635 86.9992 141.831 86.1376C140.593 85.7693 138.292 85.542 135.585 89.1949C134.302 90.9267 128.432 95.2109 135.973 97.961C137.14 98.2438 138.002 98.7799 143.298 97.7498C143.988 97.622 145.715 97.7223 146.956 99.8431L149.537 103.447C149.777 103.782 149.935 104.169 149.987 104.579C150.476 108.445 150.517 113.293 152.704 115.723C149.342 113.35 140.596 110.586 134.123 118.809M117.907 114.46C120.994 111.456 129.987 106.665 139.635 113.131" stroke="#303030" stroke-width="1.5" stroke-linecap="round" stroke-linejoin="round"/>
<path d="M46.5296 173.961C45.9043 173.968 45.4001 173.955 45.0171 173.922C44.634 173.889 44.3488 173.846 44.1615 173.792C43.9741 173.729 43.8473 173.655 43.781 173.572C43.7147 173.489 43.681 173.401 43.68 173.307C43.6787 173.195 43.7057 173.106 43.7609 173.04C43.8255 172.974 43.9696 172.926 44.1933 172.895C44.4262 172.855 44.7946 172.833 45.2986 172.827C45.7746 172.821 46.2225 172.816 46.6425 172.812C46.2728 172.312 45.9596 171.863 45.7031 171.464C45.4464 171.056 45.3174 170.792 45.316 170.671C45.3143 170.521 45.355 170.404 45.438 170.319C45.5304 170.234 45.6419 170.191 45.7726 170.189C45.8565 170.188 45.9456 170.22 46.0397 170.284C46.1429 170.339 46.2516 170.45 46.3655 170.617C46.4888 170.793 46.6595 171.029 46.8776 171.325C47.105 171.621 47.3513 171.945 47.6167 172.296C47.8452 171.874 48.0556 171.498 48.2479 171.169C48.4494 170.831 48.6006 170.586 48.7016 170.436C48.8761 170.191 49.005 170.036 49.0883 169.969C49.1715 169.903 49.2505 169.87 49.3251 169.869C49.4838 169.867 49.5646 169.992 49.5674 170.244C49.5694 170.421 49.4612 170.754 49.2428 171.242C49.0335 171.72 48.7782 172.251 48.4769 172.833C49.2518 172.852 49.8449 172.887 50.2562 172.938C50.6767 172.98 50.9666 173.033 51.126 173.096C51.2854 173.16 51.3656 173.234 51.3666 173.318C51.3674 173.392 51.3029 173.468 51.1731 173.544C51.0527 173.62 50.8061 173.688 50.4334 173.748C50.0701 173.809 49.5199 173.857 48.783 173.893C49.1245 174.375 49.4141 174.805 49.6518 175.185C49.8988 175.565 50.023 175.821 50.0245 175.951C50.0262 176.101 49.99 176.204 49.916 176.26C49.8512 176.308 49.7862 176.332 49.7208 176.333C49.5995 176.334 49.435 176.233 49.2274 176.03C49.0952 175.901 48.8919 175.675 48.6176 175.351C48.3525 175.028 48.059 174.662 47.737 174.255C47.4718 174.734 47.2248 175.176 46.9961 175.58C46.7767 175.984 46.6074 176.284 46.4883 176.482C46.3145 176.792 46.172 176.985 46.0609 177.06C45.9591 177.136 45.8615 177.175 45.7682 177.176C45.6189 177.178 45.5433 177.099 45.5415 176.94C45.5398 176.791 45.5932 176.566 45.7018 176.267C45.8103 175.957 45.9556 175.606 46.1378 175.211C46.3199 174.808 46.5205 174.39 46.7396 173.959C46.6743 173.959 46.6043 173.96 46.5296 173.961ZM52.398 181.076C52.2487 181.078 52.1268 181.028 52.0323 180.927C51.9378 180.825 51.889 180.644 51.8861 180.382C51.8838 180.186 51.9409 179.868 52.0572 179.428C52.1827 178.979 52.3494 178.454 52.5573 177.854C52.7745 177.255 53.0146 176.622 53.2777 175.956C53.55 175.281 53.8317 174.61 54.1228 173.944C54.4139 173.278 54.7009 172.664 54.9839 172.1C55.2667 171.528 55.5272 171.044 55.7654 170.649C56.0036 170.255 56.2059 169.996 56.3726 169.872C56.5669 169.73 56.7481 169.658 56.9161 169.656C57.0094 169.655 57.1029 169.663 57.1964 169.681C57.29 169.699 57.3697 169.73 57.4355 169.776C57.6047 169.877 57.7519 170.104 57.8773 170.457C58.0119 170.801 58.1287 171.225 58.2278 171.727C58.3268 172.221 58.4075 172.752 58.47 173.321C58.5417 173.88 58.604 174.435 58.657 174.985C58.9365 174.944 59.1695 174.914 59.356 174.893C59.5424 174.872 59.6776 174.861 59.7616 174.86C60.0789 174.857 60.2801 174.896 60.365 174.979C60.45 175.062 60.4978 175.16 60.5084 175.272C60.5289 175.439 60.484 175.589 60.3735 175.721C60.263 175.853 60.1054 175.953 59.9009 176.021C59.8357 176.04 59.6961 176.074 59.482 176.123C59.2771 176.163 59.0303 176.213 58.7417 176.272C58.7542 176.552 58.7618 176.813 58.7646 177.056C58.7766 177.289 58.7835 177.489 58.7854 177.657C58.7951 178.507 58.7511 179.147 58.6533 179.577C58.5554 179.998 58.4327 180.284 58.2851 180.435C58.1375 180.586 57.9937 180.663 57.8537 180.664C57.6857 180.666 57.5685 180.621 57.5021 180.528C57.4356 180.426 57.4013 180.282 57.3991 180.095L57.3878 179.101C57.3839 178.756 57.3747 178.364 57.3604 177.926C57.3553 177.478 57.3453 177.006 57.3303 176.512C56.7807 176.612 56.2218 176.707 55.6534 176.797C55.0944 176.887 54.61 176.968 54.2001 177.038C54.0008 177.572 53.829 178.055 53.6846 178.486C53.54 178.907 53.441 179.23 53.3876 179.455C53.2529 179.923 53.1309 180.275 53.0216 180.509C52.9121 180.735 52.8065 180.885 52.7047 180.961C52.6122 181.037 52.51 181.075 52.398 181.076ZM54.6619 175.786C55.1459 175.669 55.6067 175.561 56.0443 175.463C56.4912 175.364 56.9009 175.28 57.2735 175.211C57.2359 174.371 57.1754 173.569 57.092 172.804C57.0179 172.031 56.9129 171.42 56.7771 170.974C56.6033 171.284 56.398 171.697 56.1612 172.213C55.9244 172.729 55.6743 173.301 55.4107 173.93C55.1564 174.549 54.9068 175.168 54.6619 175.786ZM67.7325 173.565C67.9776 172.956 68.2084 172.328 68.4251 171.681C68.6511 171.035 68.8536 170.374 69.0325 169.7C69.0864 169.513 69.1687 169.363 69.2794 169.249C69.3994 169.127 69.5387 169.064 69.6973 169.063C69.8093 169.061 69.9031 169.102 69.9787 169.185C70.0637 169.268 70.107 169.38 70.1086 169.52C70.1106 169.697 70.0441 170.006 69.9091 170.446C69.7835 170.886 69.6218 171.444 69.4241 172.118C69.2358 172.792 69.044 173.569 68.8487 174.449C68.6626 175.319 68.5055 176.282 68.3776 177.338C68.2589 178.394 68.2064 179.52 68.22 180.714C68.223 180.975 68.1695 181.191 68.0594 181.36C67.9494 181.539 67.8151 181.629 67.6565 181.631C67.5631 181.632 67.4742 181.609 67.3897 181.564C67.3051 181.518 67.2292 181.407 67.1619 181.23C67.1039 181.063 67.0543 180.797 67.0128 180.434C66.9712 180.061 66.9468 179.557 66.9395 178.923C66.934 178.437 66.956 177.91 67.0055 177.34C66.585 178.119 66.1261 178.801 65.6287 179.386C65.1406 179.96 64.665 180.405 64.2018 180.718C63.748 181.031 63.3578 181.19 63.0312 181.193C62.6299 181.198 62.3017 181.066 62.0466 180.798C61.801 180.54 61.6752 180.149 61.6692 179.627C61.664 179.169 61.766 178.697 61.9751 178.209C62.1842 177.721 62.4634 177.242 62.8128 176.771C63.162 176.291 63.5488 175.839 63.9734 175.414C64.3979 174.989 64.823 174.616 65.2487 174.294C65.6836 173.962 66.0867 173.705 66.458 173.524C66.8291 173.333 67.1314 173.236 67.3647 173.233C67.458 173.232 67.5424 173.264 67.6178 173.328C67.6932 173.393 67.7315 173.472 67.7325 173.565ZM67.5555 174.001C67.4909 174.067 67.4123 174.134 67.3197 174.2C67.2271 174.266 67.1253 174.338 67.0141 174.413C66.6068 174.707 66.158 175.049 65.6677 175.437C65.1867 175.816 64.7247 176.232 64.2819 176.685C63.8482 177.128 63.4942 177.594 63.2197 178.083C62.9453 178.571 62.811 179.072 62.8168 179.586C62.8194 179.81 62.9327 179.92 63.1566 179.918C63.4646 179.914 63.7989 179.766 64.1596 179.472C64.5295 179.169 64.9075 178.754 65.2935 178.227C65.6794 177.691 66.0643 177.066 66.4482 176.352C66.832 175.629 67.2011 174.845 67.5555 174.001ZM76.1883 173.469C76.4334 172.859 76.6642 172.231 76.8809 171.585C77.1068 170.938 77.3093 170.278 77.4883 169.604C77.5422 169.416 77.6245 169.266 77.7352 169.153C77.8551 169.03 77.9944 168.968 78.1531 168.966C78.2651 168.965 78.3589 169.006 78.4345 169.089C78.5195 169.172 78.5627 169.283 78.5643 169.423C78.5664 169.601 78.4999 169.91 78.3649 170.35C78.2392 170.79 78.0776 171.347 77.8799 172.021C77.6916 172.696 77.4998 173.473 77.3044 174.352C77.1184 175.222 76.9613 176.186 76.8334 177.242C76.7147 178.298 76.6622 179.423 76.6758 180.618C76.6788 180.879 76.6253 181.094 76.5152 181.264C76.4052 181.442 76.2709 181.532 76.1122 181.534C76.0189 181.535 75.93 181.513 75.8455 181.467C75.7609 181.422 75.685 181.31 75.6176 181.134C75.5597 180.966 75.51 180.701 75.4686 180.337C75.427 179.965 75.4026 179.461 75.3953 178.826C75.3898 178.341 75.4118 177.813 75.4613 177.243C75.0408 178.023 74.5819 178.705 74.0845 179.289C73.5964 179.864 73.1207 180.308 72.6576 180.622C72.2038 180.935 71.8136 181.093 71.4869 181.097C71.0856 181.101 70.7575 180.97 70.5024 180.702C70.2568 180.444 70.131 180.053 70.125 179.53C70.1198 179.073 70.2217 178.6 70.4309 178.113C70.64 177.625 70.9192 177.146 71.2685 176.675C71.6177 176.195 72.0046 175.743 72.4291 175.318C72.8537 174.893 73.2788 174.519 73.7044 174.197C74.1394 173.866 74.5425 173.609 74.9137 173.427C75.2849 173.236 75.5872 173.14 75.8205 173.137C75.9138 173.136 75.9982 173.168 76.0736 173.232C76.149 173.297 76.1872 173.375 76.1883 173.469ZM76.0113 173.905C75.9467 173.971 75.8681 174.037 75.7755 174.104C75.6829 174.17 75.5811 174.241 75.4699 174.317C75.0626 174.611 74.6138 174.952 74.1235 175.34C73.6425 175.719 73.1805 176.135 72.7376 176.588C72.304 177.032 71.95 177.498 71.6755 177.987C71.4011 178.475 71.2668 178.976 71.2726 179.489C71.2752 179.713 71.3884 179.824 71.6124 179.821C71.9204 179.818 72.2547 179.669 72.6154 179.376C72.9853 179.073 73.3633 178.658 73.7493 178.131C74.1352 177.594 74.5201 176.969 74.904 176.256C75.2878 175.533 75.6569 174.749 76.0113 173.905ZM88.9587 181.262C88.744 181.264 88.5845 181.191 88.4802 181.043C88.0424 181.123 87.6184 181.188 87.2083 181.24C86.7982 181.291 86.4345 181.319 86.1172 181.322C85.9119 181.324 85.7667 181.284 85.6818 181.201C85.5968 181.118 85.5533 180.988 85.5513 180.811C85.5491 180.615 85.7754 180.407 86.2302 180.187C86.685 179.958 87.4203 179.777 88.4362 179.644C88.4965 179.204 88.593 178.657 88.7255 178.002C88.8579 177.338 89.0039 176.632 89.1634 175.883C89.3321 175.125 89.4964 174.391 89.6563 173.679C89.3337 174.038 88.9969 174.378 88.6458 174.699C88.2947 175.011 87.9616 175.267 87.6465 175.466C87.3313 175.657 87.0571 175.753 86.8238 175.756C86.5998 175.758 86.4862 175.62 86.483 175.34C86.4817 175.228 86.5826 175.068 86.7856 174.86C86.9979 174.652 87.2656 174.393 87.5887 174.081C87.9212 173.769 88.2764 173.406 88.6544 172.991C89.0323 172.576 89.4004 172.109 89.7585 171.592C90.1166 171.075 90.4181 170.502 90.663 169.874C90.7447 169.677 90.832 169.554 90.9248 169.507C91.0176 169.459 91.0967 169.435 91.162 169.434C91.302 169.432 91.4287 169.496 91.5422 169.626C91.6556 169.746 91.7145 169.997 91.7188 170.38C91.7196 170.445 91.6757 170.688 91.5871 171.109C91.4985 171.521 91.3785 172.054 91.2273 172.709C91.0855 173.364 90.921 174.085 90.7339 174.871C90.5562 175.657 90.3786 176.453 90.2011 177.257C90.0236 178.062 89.8596 178.82 89.709 179.531C90.166 179.498 90.6465 179.478 91.1504 179.473C91.5237 179.468 91.7853 179.484 91.935 179.52C92.094 179.546 92.1878 179.587 92.2164 179.643C92.2543 179.689 92.2736 179.745 92.2743 179.81C92.2754 179.903 92.1413 180.012 91.872 180.136C91.6027 180.252 91.2494 180.372 90.8121 180.499C90.3748 180.625 89.9002 180.747 89.3882 180.865C89.2792 181.127 89.136 181.26 88.9587 181.262ZM98.6574 180.437C98.0881 180.444 97.5591 180.305 97.0705 180.021C96.5912 179.728 96.2036 179.298 95.9078 178.732C95.612 178.166 95.4594 177.473 95.45 176.651C95.4418 175.933 95.5506 175.241 95.7764 174.576C96.0115 173.91 96.2709 173.333 96.5547 172.845C96.442 172.781 96.3842 172.627 96.3814 172.385C96.3777 172.058 96.4674 171.735 96.6504 171.415C96.8427 171.087 97.096 170.79 97.4103 170.525C97.734 170.26 98.0909 170.046 98.4811 169.882C98.8806 169.719 99.2856 169.635 99.6963 169.631C100.35 169.623 100.921 169.785 101.41 170.115C101.908 170.436 102.296 170.884 102.573 171.46C102.86 172.035 103.007 172.696 103.016 173.443C103.027 174.442 102.921 175.367 102.698 176.219C102.474 177.061 102.16 177.798 101.757 178.428C101.362 179.058 100.897 179.548 100.359 179.9C99.8313 180.251 99.264 180.43 98.6574 180.437ZM98.1913 171.482C98.2851 171.527 98.3326 171.602 98.3338 171.704C98.3343 171.751 98.321 171.807 98.2937 171.873C98.2757 171.929 98.2161 172.018 98.1148 172.141C97.9765 172.292 97.83 172.541 97.6753 172.888C97.5205 173.235 97.3711 173.633 97.2269 174.083C97.0826 174.533 96.9666 175.001 96.8788 175.487C96.7909 175.964 96.7494 176.417 96.7543 176.847C96.7631 177.612 96.9237 178.193 97.2362 178.591C97.5487 178.98 97.9709 179.171 98.5029 179.165C98.9135 179.16 99.3132 179.016 99.702 178.731C100.091 178.437 100.441 178.037 100.752 177.529C101.064 177.012 101.309 176.417 101.488 175.743C101.676 175.068 101.766 174.339 101.757 173.555C101.751 173.014 101.666 172.539 101.503 172.13C101.34 171.721 101.117 171.402 100.834 171.172C100.561 170.941 100.247 170.828 99.892 170.832C99.5187 170.837 99.1927 170.901 98.9141 171.026C98.6355 171.15 98.3946 171.302 98.1913 171.482ZM112.168 180.843C111.561 180.85 111 180.712 110.483 180.428C109.976 180.145 109.514 179.777 109.098 179.324C108.692 178.871 108.327 178.385 108.004 177.866C107.69 177.338 107.418 176.842 107.189 176.378C107.039 177.135 106.92 177.748 106.832 178.216C106.753 178.683 106.687 179.039 106.634 179.282C106.59 179.525 106.545 179.689 106.499 179.774C106.454 179.858 106.394 179.901 106.319 179.902C106.114 179.904 105.916 179.794 105.727 179.572C105.538 179.351 105.441 179.062 105.437 178.708C105.433 178.334 105.493 177.839 105.616 177.222C105.74 176.595 105.905 175.902 106.111 175.144C106.326 174.376 106.574 173.584 106.854 172.769C107.134 171.945 107.423 171.143 107.722 170.365C108.031 169.578 108.34 168.86 108.65 168.212C108.805 167.893 108.938 167.686 109.049 167.592C109.169 167.497 109.313 167.449 109.481 167.447C109.752 167.444 109.888 167.568 109.891 167.82C109.892 167.914 109.866 168.017 109.811 168.129C109.765 168.242 109.716 168.368 109.661 168.509C109.498 168.921 109.317 169.386 109.117 169.901C108.927 170.417 108.732 170.956 108.533 171.518C108.344 172.08 108.164 172.638 107.992 173.19C107.821 173.743 107.673 174.253 107.548 174.721C107.946 174.437 108.414 174.152 108.952 173.865C109.49 173.579 110.047 173.321 110.623 173.09C111.199 172.85 111.743 172.657 112.255 172.512C112.767 172.366 113.191 172.291 113.527 172.287C113.704 172.285 113.84 172.34 113.934 172.45C114.038 172.552 114.091 172.668 114.092 172.799C114.094 172.901 114.062 173.004 113.998 173.108C113.943 173.202 113.823 173.287 113.637 173.364C113.023 173.586 112.414 173.812 111.81 174.043C111.206 174.264 110.574 174.505 109.915 174.764C109.264 175.015 108.553 175.312 107.783 175.657C108.03 176.065 108.32 176.505 108.652 176.977C108.984 177.44 109.339 177.879 109.717 178.295C110.095 178.701 110.481 179.038 110.876 179.304C111.271 179.561 111.665 179.687 112.057 179.682C112.57 179.676 113.063 179.564 113.537 179.343C114.01 179.123 114.446 178.857 114.844 178.545C115.251 178.232 115.607 177.929 115.912 177.636C116.216 177.334 116.456 177.098 116.632 176.928C116.724 176.843 116.807 176.786 116.882 176.757C116.965 176.719 117.04 176.699 117.105 176.699C117.236 176.697 117.325 176.766 117.373 176.906C117.431 177.036 117.386 177.181 117.238 177.341C117.128 177.473 116.958 177.676 116.727 177.949C116.497 178.222 116.216 178.524 115.884 178.855C115.561 179.176 115.2 179.488 114.802 179.791C114.414 180.094 113.992 180.342 113.537 180.534C113.091 180.735 112.635 180.838 112.168 180.843ZM117.036 183.742C116.318 183.75 115.79 183.686 115.452 183.55C115.115 183.414 114.944 183.229 114.942 182.996C114.94 182.846 114.985 182.724 115.078 182.63C115.179 182.536 115.305 182.488 115.454 182.486C115.613 182.484 115.842 182.505 116.141 182.548C116.44 182.601 116.734 182.625 117.024 182.622C117.985 182.611 118.77 182.317 119.38 181.741C119.989 181.165 120.451 180.287 120.764 179.107C121.077 177.918 121.279 176.404 121.37 174.564C121.097 175.136 120.786 175.709 120.438 176.283C120.099 176.846 119.731 177.364 119.335 177.835C118.949 178.297 118.547 178.67 118.13 178.955C117.713 179.24 117.299 179.385 116.889 179.389C116.497 179.394 116.206 179.299 116.018 179.105C115.838 178.911 115.746 178.59 115.741 178.142C115.736 177.741 115.843 177.315 116.062 176.865C116.281 176.405 116.574 175.944 116.942 175.482C117.31 175.021 117.716 174.582 118.159 174.166C118.603 173.741 119.046 173.368 119.491 173.045C119.944 172.713 120.366 172.452 120.756 172.261C121.146 172.07 121.462 171.973 121.705 171.97C121.947 171.967 122.135 172.049 122.267 172.215C122.4 172.382 122.469 172.699 122.474 173.165C122.487 174.257 122.462 175.321 122.399 176.358C122.345 177.386 122.221 178.344 122.025 179.233C121.83 180.122 121.531 180.9 121.128 181.567C120.734 182.244 120.204 182.772 119.536 183.153C118.868 183.534 118.035 183.73 117.036 183.742ZM121.103 173.195C120.639 173.499 120.162 173.84 119.672 174.219C119.182 174.598 118.724 175 118.3 175.425C117.885 175.85 117.549 176.288 117.293 176.738C117.036 177.189 116.911 177.639 116.916 178.087C116.918 178.227 117.007 178.296 117.184 178.294C117.324 178.292 117.514 178.183 117.755 177.965C118.004 177.738 118.281 177.441 118.585 177.074C118.888 176.697 119.196 176.287 119.509 175.845C119.83 175.393 120.128 174.937 120.403 174.477C120.678 174.016 120.911 173.589 121.103 173.195ZM134.132 171.786C133.731 171.791 133.46 171.738 133.318 171.627C133.186 171.517 133.12 171.41 133.119 171.308C133.117 171.158 133.19 171.022 133.338 170.899C133.495 170.776 133.686 170.69 133.909 170.641C134.179 170.582 134.505 170.522 134.887 170.462C135.278 170.392 135.684 170.331 136.103 170.28C136.523 170.219 136.933 170.172 137.334 170.14C137.735 170.107 138.084 170.089 138.383 170.086C138.775 170.081 139.075 170.152 139.282 170.299C139.498 170.437 139.607 170.566 139.608 170.688C139.608 170.697 139.608 170.716 139.609 170.744C139.61 170.818 139.596 170.884 139.569 170.94C139.542 170.996 139.449 171.054 139.291 171.111C139.142 171.16 138.886 171.214 138.523 171.274C138.169 171.325 137.665 171.382 137.013 171.445C136.882 171.456 136.737 171.472 136.579 171.492C136.545 171.745 136.492 172.077 136.422 172.488C136.352 172.9 136.274 173.358 136.186 173.863C136.098 174.368 136.006 174.887 135.91 175.42C135.813 175.944 135.716 176.444 135.619 176.922C135.531 177.399 135.452 177.82 135.381 178.184C135.32 178.549 135.272 178.825 135.237 179.012C135.721 178.941 136.15 178.894 136.523 178.871C136.905 178.839 137.162 178.822 137.293 178.821C137.638 178.817 137.812 178.945 137.815 179.207C137.816 179.281 137.658 179.39 137.343 179.534C137.027 179.678 136.623 179.827 136.13 179.982C135.637 180.137 135.125 180.283 134.595 180.419C134.157 180.527 133.724 180.611 133.295 180.672C132.876 180.733 132.573 180.765 132.386 180.767C132.181 180.769 132.036 180.733 131.951 180.66C131.866 180.595 131.823 180.498 131.822 180.367C131.82 180.236 131.856 180.105 131.929 179.974C132.012 179.842 132.123 179.748 132.262 179.69C132.513 179.594 132.792 179.507 133.099 179.428C133.406 179.341 133.718 179.263 134.035 179.194C134.034 179.147 134.033 179.091 134.033 179.026C134.031 178.895 134.052 178.648 134.094 178.283C134.146 177.918 134.211 177.484 134.289 176.979C134.368 176.464 134.455 175.931 134.551 175.38C134.647 174.819 134.739 174.285 134.827 173.78C134.914 173.266 134.993 172.822 135.064 172.448C135.134 172.064 135.187 171.807 135.223 171.676C134.99 171.706 134.78 171.732 134.594 171.753C134.407 171.774 134.254 171.785 134.132 171.786ZM141.346 179.446C141.075 179.45 140.831 179.298 140.613 178.993C140.395 178.687 140.283 178.292 140.277 177.807C140.271 177.275 140.335 176.704 140.468 176.096C140.61 175.488 140.785 174.87 140.993 174.242C141.2 173.605 141.403 172.991 141.602 172.401C141.647 172.279 141.711 172.19 141.795 172.133C141.887 172.066 142.027 172.032 142.214 172.03C142.55 172.026 142.719 172.188 142.723 172.514C142.724 172.589 142.689 172.757 142.617 173.02C142.545 173.282 142.451 173.605 142.334 173.989C142.226 174.373 142.114 174.789 141.998 175.239C141.882 175.679 141.779 176.123 141.691 176.572C141.603 177.021 141.542 177.437 141.509 177.82C141.657 177.66 141.822 177.416 142.005 177.087C142.197 176.758 142.403 176.387 142.623 175.974C142.842 175.551 143.07 175.129 143.308 174.706C143.546 174.274 143.784 173.879 144.023 173.522C144.27 173.155 144.51 172.863 144.741 172.645C144.981 172.419 145.204 172.304 145.409 172.302C145.707 172.298 145.961 172.389 146.168 172.573C146.385 172.748 146.552 173.063 146.669 173.519C146.795 173.966 146.863 174.6 146.872 175.421C146.877 175.86 146.924 176.27 147.013 176.652C147.11 177.033 147.258 177.34 147.457 177.571C147.665 177.792 147.927 177.901 148.245 177.898C148.721 177.892 149.144 177.803 149.516 177.631C149.887 177.45 150.207 177.25 150.475 177.032C150.753 176.805 150.984 176.606 151.168 176.436C151.353 176.257 151.497 176.167 151.599 176.165C151.814 176.163 151.923 176.274 151.925 176.498C151.926 176.591 151.858 176.741 151.72 176.948C151.592 177.146 151.408 177.372 151.168 177.626C150.937 177.872 150.669 178.113 150.364 178.35C150.068 178.577 149.748 178.767 149.405 178.921C149.07 179.074 148.73 179.152 148.385 179.156C147.741 179.164 147.212 179.044 146.799 178.796C146.395 178.549 146.091 178.137 145.889 177.561C145.696 176.984 145.593 176.211 145.582 175.24C145.576 174.708 145.539 174.321 145.471 174.079C145.412 173.828 145.303 173.661 145.143 173.579C145.034 173.776 144.892 174.058 144.719 174.424C144.546 174.78 144.345 175.179 144.117 175.621C143.898 176.062 143.665 176.508 143.418 176.959C143.18 177.4 142.937 177.809 142.69 178.185C142.442 178.561 142.203 178.867 141.972 179.103C141.741 179.33 141.533 179.444 141.346 179.446ZM165.144 179.917C164.91 179.92 164.695 179.862 164.497 179.743C164.3 179.633 164.125 179.425 163.972 179.119C163.819 178.803 163.698 178.361 163.607 177.793C163.526 177.215 163.48 176.464 163.47 175.54C163.468 175.4 163.466 175.26 163.465 175.12C163.463 174.971 163.466 174.821 163.474 174.672C163.228 175.244 162.95 175.793 162.638 176.32C162.336 176.846 162.015 177.311 161.674 177.717C161.343 178.122 161.006 178.443 160.663 178.68C160.33 178.917 160.009 179.038 159.701 179.041C159.151 179.047 158.7 178.843 158.35 178.427C158.009 178.01 157.833 177.322 157.823 176.36C157.816 175.791 157.851 175.184 157.928 174.539C158.014 173.894 158.128 173.263 158.27 172.645C158.412 172.027 158.565 171.466 158.727 170.96C158.899 170.454 159.071 170.05 159.245 169.75C159.419 169.449 159.576 169.298 159.716 169.296C159.949 169.294 160.123 169.352 160.236 169.472C160.359 169.583 160.421 169.732 160.423 169.918C160.425 170.049 160.376 170.297 160.278 170.662C160.179 171.027 160.058 171.467 159.915 171.982C159.771 172.488 159.623 173.031 159.471 173.611C159.329 174.192 159.209 174.767 159.113 175.338C159.017 175.899 158.971 176.413 158.976 176.879C158.982 177.355 159.176 177.591 159.559 177.587C160.007 177.582 160.424 177.386 160.812 176.998C161.199 176.602 161.558 176.08 161.886 175.432C162.215 174.784 162.515 174.062 162.786 173.266C163.066 172.46 163.318 171.64 163.542 170.807C163.531 170.723 163.526 170.63 163.524 170.527C163.523 170.424 163.522 170.294 163.52 170.135C163.518 169.93 163.571 169.71 163.68 169.475C163.799 169.231 163.941 169.02 164.107 168.84C164.273 168.661 164.44 168.571 164.608 168.569C164.925 168.565 165.087 168.787 165.092 169.235C165.093 169.347 165.067 169.529 165.014 169.782C164.97 170.035 164.914 170.399 164.844 170.876C164.785 171.353 164.731 171.979 164.684 172.754C164.646 173.529 164.634 174.5 164.647 175.667C164.658 176.656 164.718 177.351 164.825 177.751C164.941 178.141 165.107 178.336 165.321 178.333C165.601 178.33 165.87 178.163 166.128 177.834C166.395 177.504 166.642 177.044 166.868 176.453C167.104 175.863 167.311 175.174 167.489 174.388C167.676 173.593 167.834 172.732 167.963 171.807C168.102 170.872 168.208 169.904 168.28 168.905C168.322 168.494 168.407 168.199 168.536 168.02C168.665 167.841 168.799 167.751 168.939 167.749C169.023 167.748 169.117 167.77 169.22 167.816C169.332 167.852 169.427 167.935 169.503 168.065C169.579 168.195 169.619 168.399 169.622 168.679C169.638 170.126 169.546 171.443 169.345 172.631C169.153 173.809 168.889 174.853 168.554 175.762C168.219 176.662 167.85 177.422 167.446 178.043C167.043 178.654 166.637 179.121 166.23 179.443C165.832 179.755 165.47 179.914 165.144 179.917ZM176.934 173.328C176.937 173.627 176.847 173.922 176.664 174.214C176.48 174.496 176.236 174.769 175.931 175.034C175.626 175.289 175.288 175.531 174.917 175.76C174.546 175.988 174.175 176.188 173.804 176.36C173.433 176.533 173.094 176.672 172.787 176.778C172.716 177.143 172.683 177.465 172.686 177.745C172.688 177.922 172.731 178.048 172.816 178.122C172.901 178.195 173.032 178.231 173.209 178.229C173.601 178.225 174.016 178.15 174.453 178.005C174.89 177.86 175.336 177.673 175.79 177.444C176.245 177.215 176.681 176.972 177.098 176.715C177.515 176.458 177.895 176.216 178.238 175.988C178.59 175.76 178.882 175.574 179.114 175.432C179.345 175.289 179.499 175.217 179.573 175.216C179.685 175.215 179.77 175.252 179.827 175.326C179.893 175.39 179.926 175.469 179.927 175.562C179.928 175.637 179.813 175.783 179.582 176C179.361 176.218 179.06 176.473 178.681 176.767C178.302 177.051 177.875 177.345 177.403 177.649C176.93 177.953 176.439 178.239 175.929 178.506C175.428 178.773 174.94 178.989 174.466 179.153C174.001 179.317 173.582 179.401 173.209 179.405C172.723 179.411 172.343 179.233 172.069 178.872C171.794 178.511 171.652 177.948 171.643 177.183C171.637 176.67 171.697 176.151 171.822 175.627C171.956 175.103 172.137 174.601 172.364 174.123C172.602 173.634 172.863 173.202 173.148 172.826C173.442 172.439 173.751 172.137 174.075 171.919C174.399 171.691 174.716 171.576 175.024 171.572C175.611 171.565 176.075 171.723 176.415 172.046C176.755 172.369 176.928 172.796 176.934 173.328ZM173.068 175.697C173.356 175.516 173.652 175.326 173.958 175.126C174.264 174.927 174.546 174.723 174.805 174.515C175.064 174.306 175.272 174.089 175.428 173.864C175.593 173.628 175.674 173.389 175.671 173.147C175.668 172.801 175.479 172.631 175.106 172.635C174.872 172.638 174.627 172.79 174.369 173.092C174.12 173.384 173.882 173.765 173.654 174.234C173.426 174.703 173.231 175.191 173.068 175.697ZM179.464 179.404C179.286 179.406 179.127 179.342 178.985 179.213C178.844 179.075 178.771 178.861 178.768 178.572C178.766 178.367 178.79 178.082 178.842 177.717C178.894 177.343 178.964 176.936 179.052 176.496C179.141 176.057 179.234 175.622 179.332 175.191C179.439 174.751 179.546 174.358 179.654 174.011C179.762 173.665 179.857 173.407 179.939 173.238C180.012 173.107 180.082 173.022 180.146 172.984C180.221 172.946 180.29 172.926 180.356 172.925C180.486 172.924 180.599 172.965 180.693 173.048C180.797 173.13 180.85 173.293 180.853 173.536C180.854 173.676 180.829 173.909 180.777 174.237C180.734 174.554 180.673 174.929 180.594 175.359C180.524 175.78 180.445 176.215 180.356 176.664C180.277 177.103 180.198 177.524 180.119 177.926C180.039 178.329 179.978 178.665 179.934 178.937C179.899 179.086 179.835 179.204 179.742 179.289C179.659 179.364 179.566 179.403 179.464 179.404ZM180.747 171.647C180.533 171.649 180.327 171.586 180.129 171.458C179.941 171.329 179.845 171.12 179.842 170.831C179.839 170.588 179.893 170.392 180.003 170.241C180.123 170.091 180.262 169.982 180.419 169.914C180.587 169.838 180.731 169.799 180.852 169.798C180.973 169.796 181.109 169.823 181.259 169.877C181.418 169.922 181.555 170.014 181.668 170.152C181.782 170.282 181.84 170.477 181.843 170.738C181.845 170.916 181.786 171.075 181.666 171.216C181.547 171.348 181.398 171.453 181.222 171.529C181.055 171.606 180.897 171.645 180.747 171.647ZM183.343 182.986C182.624 182.994 182.096 182.93 181.759 182.794C181.421 182.658 181.251 182.473 181.248 182.24C181.247 182.09 181.292 181.969 181.384 181.874C181.486 181.78 181.611 181.732 181.761 181.73C181.919 181.728 182.148 181.749 182.447 181.792C182.747 181.845 183.041 181.869 183.33 181.866C184.291 181.855 185.077 181.561 185.686 180.985C186.296 180.409 186.757 179.531 187.07 178.351C187.383 177.162 187.586 175.648 187.677 173.808C187.403 174.38 187.092 174.953 186.744 175.527C186.405 176.091 186.038 176.608 185.642 177.079C185.255 177.541 184.853 177.914 184.436 178.199C184.02 178.484 183.606 178.629 183.195 178.633C182.803 178.638 182.513 178.543 182.324 178.349C182.144 178.155 182.052 177.834 182.047 177.386C182.042 176.985 182.15 176.559 182.368 176.109C182.587 175.649 182.881 175.188 183.249 174.727C183.617 174.265 184.023 173.826 184.466 173.411C184.909 172.985 185.353 172.612 185.797 172.289C186.251 171.957 186.672 171.696 187.062 171.505C187.452 171.314 187.768 171.217 188.011 171.214C188.254 171.211 188.441 171.293 188.574 171.46C188.706 171.626 188.775 171.943 188.781 172.409C188.793 173.501 188.768 174.566 188.705 175.602C188.652 176.63 188.527 177.588 188.332 178.477C188.137 179.366 187.838 180.144 187.434 180.811C187.041 181.488 186.51 182.016 185.842 182.397C185.175 182.778 184.342 182.975 183.343 182.986ZM187.409 172.439C186.946 172.743 186.469 173.084 185.979 173.463C185.488 173.842 185.031 174.244 184.606 174.669C184.191 175.094 183.855 175.532 183.599 175.983C183.343 176.434 183.217 176.883 183.222 177.331C183.224 177.471 183.314 177.54 183.491 177.538C183.631 177.536 183.821 177.427 184.061 177.209C184.311 176.983 184.587 176.685 184.891 176.318C185.195 175.941 185.503 175.532 185.815 175.089C186.137 174.638 186.435 174.181 186.71 173.721C186.984 173.26 187.217 172.833 187.409 172.439ZM191.582 179.826C191.377 179.828 191.217 179.769 191.104 179.649C190.991 179.539 190.931 179.255 190.926 178.797C190.921 178.377 190.99 177.83 191.132 177.157C191.273 176.474 191.465 175.716 191.708 174.882C191.95 174.049 192.225 173.187 192.532 172.297C192.839 171.397 193.161 170.516 193.496 169.653C193.841 168.781 194.173 167.984 194.491 167.262C194.609 166.999 194.733 166.816 194.863 166.712C194.992 166.607 195.146 166.554 195.323 166.552C195.444 166.551 195.547 166.587 195.632 166.661C195.726 166.725 195.774 166.837 195.776 166.995C195.777 167.051 195.718 167.234 195.6 167.543C195.492 167.853 195.338 168.26 195.138 168.767C194.948 169.273 194.735 169.84 194.5 170.468C194.264 171.096 194.024 171.757 193.78 172.45C193.536 173.144 193.306 173.842 193.09 174.544C192.874 175.237 192.69 175.902 192.539 176.539C192.387 177.175 192.286 177.746 192.236 178.25C192.457 177.977 192.71 177.629 192.994 177.206C193.279 176.782 193.582 176.326 193.903 175.837C194.224 175.348 194.55 174.864 194.88 174.384C195.211 173.904 195.537 173.466 195.859 173.071C196.181 172.675 196.481 172.359 196.759 172.122C197.045 171.876 197.296 171.752 197.51 171.75C197.865 171.746 198.151 171.854 198.368 172.076C198.595 172.288 198.711 172.641 198.716 173.136C198.719 173.416 198.667 173.753 198.56 174.146C198.462 174.539 198.345 174.951 198.21 175.382C198.075 175.813 197.953 176.225 197.846 176.618C197.748 177.011 197.7 177.348 197.703 177.628C197.708 178.011 197.855 178.2 198.144 178.197C198.592 178.192 199.039 178.089 199.484 177.888C199.939 177.686 200.371 177.439 200.778 177.145C201.185 176.842 201.56 176.539 201.902 176.236C202.244 175.924 202.535 175.659 202.775 175.442C203.033 175.206 203.251 175.087 203.429 175.085C203.653 175.082 203.766 175.197 203.769 175.431C203.769 175.496 203.756 175.571 203.729 175.655C203.702 175.739 203.629 175.848 203.509 175.98C203.362 176.149 203.149 176.371 202.872 176.645C202.605 176.919 202.291 177.212 201.93 177.524C201.579 177.836 201.195 178.129 200.778 178.405C200.371 178.68 199.949 178.909 199.512 179.091C199.085 179.264 198.666 179.353 198.255 179.358C197.695 179.364 197.259 179.21 196.948 178.897C196.645 178.573 196.491 178.127 196.484 177.558C196.48 177.203 196.532 176.773 196.638 176.268C196.744 175.763 196.878 175.229 197.04 174.667C197.21 174.096 197.381 173.539 197.553 172.995C197.256 173.204 196.933 173.516 196.583 173.93C196.242 174.336 195.884 174.797 195.507 175.315C195.13 175.823 194.753 176.341 194.376 176.868C194.009 177.395 193.651 177.884 193.301 178.336C192.961 178.779 192.643 179.137 192.347 179.411C192.052 179.685 191.797 179.823 191.582 179.826ZM201.569 174.602C201.317 174.586 201.199 174.424 201.214 174.116C201.222 174.041 201.273 173.952 201.365 173.848C201.457 173.735 201.563 173.673 201.685 173.662C201.974 173.631 202.328 173.585 202.747 173.524C203.176 173.454 203.646 173.374 204.158 173.284C204.247 172.826 204.353 172.344 204.478 171.838C204.603 171.333 204.742 170.841 204.895 170.363C205.048 169.876 205.211 169.436 205.384 169.042C205.557 168.648 205.74 168.338 205.934 168.111C206.035 168.008 206.128 167.937 206.211 167.898C206.295 167.851 206.369 167.827 206.434 167.826C206.565 167.824 206.668 167.879 206.744 167.99C206.83 168.101 206.873 168.227 206.875 168.367C206.875 168.441 206.862 168.516 206.835 168.591C206.654 169.116 206.461 169.762 206.255 170.53C206.049 171.298 205.83 172.136 205.598 173.044C206.455 172.894 207.312 172.735 208.169 172.566C209.025 172.398 209.761 172.245 210.375 172.107C210.552 172.03 210.687 172.043 210.782 172.144C210.886 172.246 210.938 172.348 210.939 172.451C210.941 172.581 210.905 172.68 210.831 172.746C210.766 172.812 210.697 172.869 210.623 172.916L210.609 172.931C210.423 173.007 210.144 173.099 209.772 173.206C209.4 173.304 208.972 173.411 208.488 173.529C208.003 173.637 207.487 173.745 206.937 173.854C206.397 173.963 205.861 174.063 205.33 174.153C205.125 174.976 204.915 175.824 204.701 176.694C204.497 177.555 204.291 178.402 204.086 179.235C203.997 179.572 203.892 179.784 203.771 179.869C203.661 179.964 203.54 180.012 203.409 180.013C203.26 180.015 203.128 179.96 203.015 179.85C202.911 179.739 202.895 179.51 202.965 179.164L203.933 174.379C203.374 174.469 202.88 174.535 202.451 174.578C202.032 174.62 201.738 174.628 201.569 174.602Z" fill="#2D2D2D"/>
<path d="M216.019 178.609C215.841 178.611 215.691 178.529 215.568 178.362C215.445 178.196 215.38 177.842 215.374 177.3C215.369 176.909 215.415 176.423 215.511 175.843C215.607 175.263 215.735 174.641 215.896 173.976C216.066 173.312 216.245 172.647 216.433 171.982C216.622 171.317 216.811 170.694 217 170.113C217.189 169.533 217.356 169.041 217.501 168.638C217.646 168.225 217.75 167.949 217.814 167.808C217.85 167.714 217.914 167.63 218.007 167.554C218.099 167.478 218.197 167.44 218.3 167.439C218.514 167.436 218.65 167.491 218.707 167.602C218.765 167.713 218.794 167.834 218.796 167.965C218.798 168.17 218.71 168.643 218.532 169.382C218.353 170.112 218.076 171.198 217.701 172.64C218.064 172.552 218.464 172.468 218.902 172.388C219.34 172.308 219.778 172.233 220.216 172.163C220.663 172.093 221.073 172.032 221.446 171.981C221.828 171.921 222.144 171.875 222.396 171.844C222.657 171.813 222.816 171.797 222.872 171.797C222.937 171.796 223.016 171.814 223.11 171.85C223.253 171.279 223.392 170.75 223.526 170.263C223.661 169.776 223.777 169.369 223.876 169.041C223.975 168.704 224.042 168.479 224.079 168.367C224.269 167.898 224.5 167.662 224.77 167.659C224.929 167.657 225.06 167.711 225.164 167.822C225.268 167.933 225.322 168.096 225.324 168.31C225.326 168.488 225.292 168.787 225.222 169.208C225.152 169.629 225.055 170.124 224.931 170.695C224.816 171.266 224.683 171.874 224.532 172.52C224.39 173.156 224.243 173.793 224.092 174.429C223.949 175.056 223.811 175.646 223.678 176.198C223.553 176.741 223.446 177.199 223.357 177.574C223.278 177.948 223.229 178.191 223.212 178.303C223.177 178.537 223.119 178.752 223.037 178.949C222.955 179.156 222.798 179.26 222.565 179.263C222.378 179.265 222.251 179.145 222.183 178.903C222.124 178.661 222.092 178.349 222.088 177.966C222.083 177.537 222.115 177.046 222.183 176.495C222.251 175.934 222.343 175.345 222.457 174.728C222.581 174.11 222.714 173.497 222.856 172.889C222.595 172.957 222.246 173.036 221.809 173.125C221.38 173.214 220.905 173.308 220.384 173.407C219.862 173.506 219.341 173.601 218.819 173.691C218.297 173.781 217.817 173.856 217.379 173.917C217.139 174.928 216.948 175.784 216.807 176.486C216.674 177.178 216.555 177.707 216.447 178.072C216.339 178.428 216.196 178.607 216.019 178.609ZM229.199 178.907C228.648 178.913 228.212 178.708 227.89 178.292C227.568 177.876 227.403 177.331 227.395 176.659C227.392 176.417 227.422 176.16 227.484 175.888C227.556 175.608 227.646 175.354 227.756 175.129C227.69 175.065 227.637 174.977 227.599 174.865C227.56 174.744 227.539 174.595 227.537 174.418C227.531 173.867 227.619 173.362 227.8 172.903C227.982 172.443 228.224 172.044 228.529 171.704C228.833 171.355 229.17 171.085 229.541 170.895C229.922 170.704 230.308 170.606 230.7 170.601C231.344 170.594 231.869 170.821 232.276 171.283C232.683 171.736 232.891 172.434 232.902 173.376C232.908 173.871 232.839 174.376 232.695 174.891C232.561 175.406 232.371 175.903 232.124 176.381C231.887 176.86 231.607 177.288 231.285 177.665C230.972 178.042 230.634 178.345 230.273 178.573C229.921 178.791 229.563 178.903 229.199 178.907ZM228.674 174.643C228.731 174.717 228.76 174.814 228.761 174.936C228.763 175.076 228.737 175.216 228.682 175.357C228.637 175.497 228.588 175.689 228.535 175.932C228.482 176.176 228.458 176.521 228.463 176.969C228.468 177.417 228.648 177.639 229.002 177.635C229.394 177.631 229.756 177.473 230.089 177.161C230.421 176.84 230.715 176.43 230.971 175.933C231.227 175.435 231.421 174.905 231.555 174.344C231.698 173.773 231.766 173.235 231.761 172.731C231.757 172.405 231.694 172.177 231.571 172.048C231.448 171.909 231.228 171.841 230.91 171.845C230.584 171.849 230.244 171.965 229.892 172.193C229.549 172.411 229.263 172.709 229.034 173.085C228.805 173.46 228.693 173.882 228.699 174.348C228.7 174.451 228.692 174.549 228.674 174.643ZM235.969 179.096C235.643 179.1 235.371 178.958 235.153 178.671C234.944 178.375 234.835 177.849 234.827 177.093C234.818 176.299 234.823 175.529 234.842 174.782C234.862 174.026 234.905 173.349 234.973 172.751C235.05 172.153 235.157 171.675 235.293 171.319C235.429 170.963 235.609 170.783 235.833 170.781C235.991 170.779 236.132 170.866 236.256 171.042C236.379 171.209 236.442 171.432 236.445 171.712C236.449 172.001 236.425 172.389 236.375 172.875C236.324 173.361 236.26 173.884 236.182 174.445C236.114 174.997 236.055 175.534 236.005 176.057C235.955 176.571 235.932 177.005 235.936 177.36C235.937 177.509 235.943 177.631 235.954 177.724C235.973 177.808 236.002 177.849 236.039 177.849C236.179 177.847 236.327 177.724 236.483 177.48C236.648 177.226 236.822 176.897 237.004 176.494C237.186 176.081 237.377 175.631 237.577 175.143C237.776 174.646 237.981 174.154 238.19 173.666C238.399 173.178 238.613 172.733 238.833 172.329C239.052 171.916 239.272 171.586 239.493 171.341C239.714 171.087 239.932 170.958 240.147 170.956C240.399 170.953 240.634 171.071 240.851 171.312C241.078 171.542 241.194 171.877 241.199 172.316C241.2 172.446 241.184 172.675 241.15 173.002C241.117 173.32 241.074 173.685 241.023 174.096C240.971 174.507 240.92 174.918 240.869 175.33C240.817 175.732 240.775 176.092 240.741 176.409C240.707 176.718 240.691 176.937 240.693 177.068C240.698 177.553 240.748 177.795 240.841 177.794C241.102 177.791 241.376 177.625 241.661 177.295C241.956 176.955 242.25 176.523 242.543 175.997C242.844 175.461 243.141 174.884 243.433 174.264C243.734 173.636 244.021 173.035 244.294 172.463C244.422 172.162 244.527 171.961 244.61 171.857C244.702 171.744 244.794 171.687 244.888 171.686C245.018 171.684 245.14 171.753 245.254 171.892C245.377 172.03 245.44 172.221 245.442 172.463C245.443 172.547 245.44 172.631 245.431 172.716C245.423 172.79 245.401 172.875 245.364 172.968C245.056 173.812 244.725 174.595 244.369 175.318C244.013 176.031 243.647 176.656 243.27 177.192C242.903 177.719 242.539 178.134 242.178 178.437C241.818 178.73 241.483 178.879 241.175 178.882C240.643 178.889 240.226 178.744 239.924 178.449C239.632 178.144 239.482 177.735 239.476 177.222C239.474 177.007 239.485 176.727 239.509 176.381C239.542 176.036 239.58 175.662 239.622 175.26C239.673 174.858 239.725 174.47 239.777 174.096C239.828 173.722 239.871 173.395 239.906 173.115C239.949 172.834 239.975 172.642 239.983 172.54C239.991 172.409 239.976 172.344 239.939 172.344C239.901 172.345 239.828 172.467 239.719 172.711C239.619 172.945 239.496 173.245 239.351 173.611C239.215 173.967 239.07 174.338 238.916 174.722C238.743 175.144 238.543 175.608 238.316 176.115C238.097 176.612 237.86 177.086 237.604 177.537C237.357 177.988 237.095 178.36 236.818 178.652C236.542 178.945 236.259 179.093 235.969 179.096ZM248.578 175.844C248.232 175.848 247.961 175.772 247.763 175.615C247.565 175.449 247.464 175.194 247.46 174.849C247.457 174.541 247.552 174.25 247.744 173.977C247.937 173.695 248.186 173.417 248.491 173.143C248.805 172.868 249.129 172.589 249.461 172.306C249.84 171.984 250.178 171.667 250.473 171.356C250.768 171.045 250.914 170.744 250.91 170.455C250.905 169.998 250.644 169.623 250.128 169.33C249.62 169.037 248.881 168.896 247.911 168.907C247.845 168.908 247.77 168.876 247.686 168.812C247.61 168.738 247.571 168.575 247.568 168.323C247.563 167.884 247.826 167.662 248.358 167.656C249.189 167.646 249.886 167.75 250.448 167.968C251.02 168.176 251.452 168.451 251.746 168.793C252.048 169.126 252.201 169.484 252.206 169.866C252.212 170.37 252.109 170.824 251.899 171.228C251.698 171.622 251.437 171.98 251.114 172.301C250.8 172.612 250.472 172.901 250.129 173.166C249.713 173.479 249.366 173.758 249.089 174.004C248.821 174.24 248.688 174.433 248.689 174.583C248.69 174.629 248.741 174.652 248.844 174.651C249.012 174.649 249.175 174.633 249.334 174.603C249.501 174.564 249.655 174.544 249.795 174.542C249.851 174.541 249.903 174.559 249.95 174.596C249.997 174.633 250.021 174.717 250.022 174.847C250.025 175.081 249.906 175.306 249.666 175.523C249.435 175.731 249.072 175.838 248.578 175.844ZM248.957 178.388C248.958 178.518 248.922 178.631 248.849 178.725C248.784 178.819 248.682 178.886 248.543 178.925C248.479 179.084 248.378 179.197 248.239 179.264C248.109 179.331 247.937 179.365 247.722 179.368C247.498 179.37 247.315 179.307 247.174 179.178C247.032 179.058 246.96 178.882 246.958 178.649C246.954 178.294 247.053 178.017 247.256 177.819C247.459 177.621 247.696 177.52 247.967 177.517C248.256 177.514 248.49 177.572 248.669 177.691C248.857 177.81 248.953 178.042 248.957 178.388Z" fill="#5C5C5C"/>
<path d="M124.341 250.562C123.763 249.308 124.31 247.823 125.564 247.245C126.818 246.666 128.303 247.214 128.881 248.467C129.24 249.245 129.166 250.113 128.758 250.797C128.333 251.509 127.94 252.395 128.287 253.147" stroke="#918798" stroke-width="1.5" stroke-linecap="round" stroke-linejoin="round"/>
<path d="M129.762 256.045L129.648 256.098M129.875 255.993C129.933 256.118 129.878 256.267 129.753 256.325C129.627 256.383 129.479 256.328 129.421 256.203C129.363 256.077 129.418 255.929 129.543 255.871C129.669 255.813 129.817 255.868 129.875 255.993Z" stroke="#918798" stroke-width="1.5" stroke-linecap="round" stroke-linejoin="round"/>
<path d="M165.761 248.169C166.111 246.834 167.477 246.035 168.813 246.385C170.148 246.735 170.947 248.101 170.597 249.437C170.38 250.266 169.772 250.888 169.022 251.157C168.242 251.437 167.375 251.871 167.165 252.672" stroke="#918798" stroke-width="1.5" stroke-linecap="round" stroke-linejoin="round"/>
<path d="M166.462 255.848L166.342 255.816M166.583 255.879C166.548 256.013 166.412 256.093 166.278 256.058C166.145 256.023 166.065 255.886 166.1 255.753C166.135 255.619 166.271 255.539 166.405 255.574C166.539 255.609 166.618 255.746 166.583 255.879Z" stroke="#918798" stroke-width="1.5" stroke-linecap="round" stroke-linejoin="round"/>
<path d="M143.114 235.252C143.099 233.871 144.205 232.739 145.586 232.724C146.966 232.708 148.098 233.814 148.114 235.195C148.124 236.052 147.701 236.813 147.049 237.271C146.371 237.747 145.65 238.395 145.66 239.223" stroke="#918798" stroke-width="1.5" stroke-linecap="round" stroke-linejoin="round"/>
<path d="M145.821 242.472L145.696 242.473M145.946 242.47C145.948 242.608 145.837 242.721 145.699 242.723C145.561 242.725 145.448 242.614 145.446 242.476C145.445 242.338 145.555 242.225 145.693 242.223C145.831 242.221 145.945 242.332 145.946 242.47Z" stroke="#918798" stroke-width="1.5" stroke-linecap="round" stroke-linejoin="round"/>
<path d="M135.281 274.844L154.182 274.628C156.319 274.604 157.108 275.089 156.599 277.244C155.702 281.044 153.05 282.016 150.617 284.518C150.026 285.126 150.967 286.003 150.975 286.665C150.99 287.91 149.807 288.013 148.864 288.023L140.903 288.114C139.96 288.125 138.775 288.049 138.762 286.804C138.755 286.157 139.647 285.216 139.07 284.649C136.582 282.204 133.908 281.293 132.924 277.514C132.367 275.371 133.144 274.868 135.281 274.844Z" stroke="#5C5C5C" stroke-width="1.5" stroke-linejoin="round"/>
<path d="M154.732 274.622C154.704 272.234 152.153 270.636 150.03 271.599M134.733 274.85C134.713 273.126 135.988 271.691 137.648 271.482C136.535 269.04 138.804 266.262 141.36 266.797M141.36 266.797C141.954 263.204 147.247 263.144 147.923 266.722C150.526 266.115 152.764 268.887 151.75 271.3M141.36 266.797C142.154 266.963 142.845 267.414 143.322 268.039" stroke="#5C5C5C" stroke-width="1.5" stroke-linecap="round" stroke-linejoin="round"/>
<path d="M152.686 270.645L159.261 262.57" stroke="#5C5C5C" stroke-width="1.5" stroke-linecap="round" stroke-linejoin="round"/>
<path d="M151.307 266.661L153.913 261.297" stroke="#5C5C5C" stroke-width="1.5" stroke-linecap="round" stroke-linejoin="round"/>
</svg>
