<svg width="294" height="418" viewBox="0 0 294 418" fill="none" xmlns="http://www.w3.org/2000/svg">
<rect width="286" height="412" transform="translate(0 5.51253) rotate(-1.10442)" fill="#D3F1CD"/>
<path d="M70.828 332.442C66.8443 332.519 64.3007 329.775 64.2141 325.283C64.1281 320.821 66.593 317.961 70.5278 317.885C73.1152 317.835 75.2094 319.055 76.1282 321.117C76.2704 321.398 76.3444 321.69 76.3495 321.953C76.3608 322.539 75.9776 322.927 75.3917 322.939C74.8742 322.949 74.5276 322.701 74.2726 322.14C73.5881 320.58 72.1855 319.767 70.5647 319.799C68.0066 319.848 66.3872 321.979 66.4501 325.24C66.5135 328.531 68.1939 330.579 70.7813 330.529C72.4997 330.496 73.8037 329.738 74.4285 328.202C74.6529 327.68 74.9319 327.46 75.4103 327.451C76.0059 327.439 76.4239 327.842 76.435 328.418C76.4409 328.72 76.3682 329.005 76.2182 329.33C75.3469 331.252 73.4447 332.392 70.828 332.442ZM81.0988 332.186C79.0874 332.225 77.6476 331.002 77.612 329.157C77.5774 327.36 78.9425 326.23 81.3711 326.047L84.1896 325.826L84.1744 325.035C84.1524 323.893 83.3679 323.224 82.079 323.249C81.0636 323.269 80.3969 323.643 79.8291 324.592C79.6203 324.908 79.3496 325.05 78.9785 325.057C78.4513 325.068 78.0637 324.723 78.0536 324.196C78.0494 323.981 78.1035 323.746 78.2259 323.509C78.7405 322.337 80.2787 321.565 82.124 321.529C84.6138 321.481 86.2307 322.769 86.2704 324.829L86.3899 331.029C86.4027 331.693 85.9906 332.101 85.395 332.113C84.8092 332.124 84.4015 331.751 84.37 331.126L84.3532 330.257L84.3044 330.258C83.7308 331.412 82.4364 332.16 81.0988 332.186ZM81.6426 330.505C83.117 330.477 84.2593 329.439 84.2335 328.101L84.2179 327.291L81.6823 327.496C80.4245 327.608 79.7224 328.178 79.7394 329.057C79.7567 329.955 80.5198 330.527 81.6426 330.505ZM89.1935 332.04C88.5784 332.051 88.1309 331.64 88.1176 330.947L87.8817 318.713C87.8684 318.02 88.2996 317.591 88.9148 317.579C89.5299 317.567 89.9774 317.979 89.9907 318.672L90.2266 330.906C90.2399 331.599 89.8087 332.028 89.1935 332.04ZM96.4291 331.91C93.4902 331.966 91.518 329.983 91.4542 326.673C91.3906 323.373 93.2946 321.314 96.2237 321.257C99.1529 321.201 101.135 323.185 101.198 326.485C101.262 329.795 99.368 331.853 96.4291 331.91ZM96.3956 330.172C98.0554 330.14 99.0945 328.811 99.0504 326.526C99.0066 324.251 97.9073 322.964 96.2572 322.995C94.6072 323.027 93.5584 324.356 93.6022 326.631C93.6463 328.916 94.7455 330.204 96.3956 330.172ZM103.586 331.762C102.952 331.774 102.523 331.353 102.51 330.669L102.347 322.204C102.335 321.56 102.737 321.132 103.332 321.12C103.918 321.109 104.336 321.521 104.349 322.166L104.366 323.044L104.414 323.043C104.675 321.886 105.608 321.096 106.633 321.076C107.004 321.069 107.289 321.152 107.468 321.314C107.666 321.467 107.759 321.719 107.765 322.051C107.771 322.383 107.669 322.629 107.467 322.799C107.256 322.989 106.945 323.082 106.506 323.091C105.061 323.129 104.493 324.106 104.518 325.386L104.619 330.629C104.632 331.312 104.211 331.75 103.586 331.762ZM109.584 319.632C108.911 319.645 108.353 319.109 108.341 318.445C108.328 317.772 108.864 317.234 109.538 317.221C110.221 317.208 110.778 317.724 110.791 318.398C110.804 319.062 110.268 319.619 109.584 319.632ZM109.816 331.642C109.181 331.654 108.753 331.223 108.74 330.549L108.578 322.143C108.565 321.459 108.976 321.012 109.611 320.999C110.245 320.987 110.674 321.418 110.687 322.102L110.849 330.509C110.862 331.182 110.451 331.63 109.816 331.642ZM117.081 331.512C113.986 331.571 112.132 329.644 112.068 326.324C112.005 323.063 113.819 320.918 116.729 320.862C119.463 320.809 121.385 322.745 121.439 325.548C121.452 326.231 121.069 326.629 120.415 326.642L114.205 326.762L114.206 326.81C114.243 328.685 115.32 329.836 116.999 329.804C118.151 329.782 118.866 329.368 119.626 328.288C119.846 328.02 120.059 327.909 120.361 327.903C120.869 327.893 121.247 328.218 121.257 328.745C121.26 328.911 121.205 329.108 121.121 329.314C120.473 330.675 118.994 331.475 117.081 331.512ZM114.187 325.287L119.323 325.188C119.243 323.578 118.216 322.533 116.752 322.561C115.297 322.589 114.263 323.684 114.187 325.287ZM126.581 331.329C124.56 331.367 123.06 330.566 122.548 329.316C122.476 329.161 122.454 329.015 122.451 328.878C122.441 328.351 122.816 328.031 123.343 328.021C123.695 328.014 124.001 328.175 124.272 328.56C124.815 329.38 125.437 329.739 126.658 329.715C127.859 329.692 128.659 329.159 128.643 328.31C128.63 327.636 128.222 327.282 127.114 327.04L125.486 326.691C123.485 326.26 122.49 325.303 122.462 323.838C122.426 321.983 124.013 320.722 126.454 320.675C128.309 320.639 129.851 321.557 130.167 322.762C130.189 322.879 130.21 322.976 130.212 323.073C130.221 323.542 129.934 323.86 129.407 323.87C129.065 323.877 128.76 323.766 128.549 323.438C128.075 322.665 127.442 322.267 126.407 322.287C125.274 322.309 124.504 322.881 124.519 323.681C124.532 324.326 125.038 324.765 126.127 324.998L127.726 325.339C129.893 325.795 130.738 326.55 130.767 328.073C130.804 329.977 129.12 331.28 126.581 331.329ZM136.335 331.101C135.681 331.114 135.234 330.722 135.223 330.127C135.219 329.961 135.254 329.745 135.347 329.48L139.409 317.778C139.677 316.991 140.149 316.621 140.92 316.606C141.682 316.591 142.157 316.934 142.465 317.709L146.985 329.255C147.088 329.527 147.131 329.711 147.134 329.897C147.146 330.473 146.695 330.902 146.06 330.914C145.474 330.925 145.147 330.658 144.94 330.037L143.807 327.021L138.417 327.125L137.411 330.172C137.219 330.811 136.902 331.091 136.335 331.101ZM138.939 325.328L143.216 325.245L140.978 319.105L140.919 319.107L138.939 325.328ZM149.42 330.878C148.795 330.891 148.357 330.479 148.344 329.786L148.181 321.321C148.168 320.676 148.551 320.249 149.166 320.237C149.771 320.225 150.199 320.637 150.212 321.291L150.227 322.102L150.276 322.101C150.81 320.918 151.871 320.194 153.452 320.164C155.718 320.12 157.044 321.54 157.089 323.893L157.2 329.615C157.213 330.308 156.782 330.737 156.157 330.749C155.542 330.76 155.094 330.349 155.081 329.656L154.979 324.344C154.949 322.802 154.21 321.966 152.745 321.994C151.261 322.023 150.325 323.096 150.355 324.687L150.453 329.745C150.466 330.438 150.035 330.867 149.42 330.878ZM162.718 330.612C160.121 330.662 158.363 328.626 158.3 325.384C158.238 322.142 159.917 320.049 162.494 319.999C163.969 319.971 165.155 320.69 165.752 321.812L165.791 321.811L165.703 317.212C165.689 316.519 166.121 316.091 166.746 316.079C167.361 316.067 167.808 316.478 167.822 317.172L168.059 329.464C168.071 330.128 167.649 330.527 167.034 330.539C166.439 330.55 165.953 330.169 165.94 329.505L165.921 328.548L165.892 328.549C165.388 329.76 164.32 330.581 162.718 330.612ZM163.24 328.815C164.861 328.784 165.918 327.386 165.877 325.238C165.836 323.109 164.725 321.734 163.105 321.765C161.435 321.798 160.417 323.185 160.458 325.342C160.5 327.51 161.571 328.847 163.24 328.815ZM174.758 330.361C174.133 330.373 173.754 329.989 173.741 329.335L173.511 317.365C173.494 316.515 174.021 315.968 174.89 315.951C175.632 315.937 176.078 316.26 176.426 317.074L180.79 327.119L180.868 327.117L184.832 316.912C185.149 316.095 185.591 315.745 186.353 315.73C187.202 315.714 187.749 316.231 187.766 317.09L187.997 329.06C188.009 329.715 187.636 330.112 187.021 330.124C186.396 330.136 186.008 329.753 185.995 329.099L185.812 319.618L185.744 319.62L182.001 329.156C181.778 329.727 181.431 329.988 180.885 329.998C180.338 330.009 179.972 329.762 179.736 329.22L175.619 319.815L175.551 319.816L175.733 329.297C175.746 329.951 175.382 330.349 174.758 330.361ZM192.694 330.034C190.683 330.073 189.243 328.851 189.208 327.005C189.173 325.209 190.538 324.079 192.967 323.895L195.785 323.675L195.77 322.884C195.748 321.742 194.964 321.073 193.675 321.098C192.659 321.117 191.993 321.492 191.425 322.44C191.216 322.757 190.945 322.899 190.574 322.906C190.047 322.916 189.659 322.572 189.649 322.045C189.645 321.83 189.699 321.595 189.822 321.358C190.336 320.186 191.874 319.414 193.72 319.378C196.209 319.33 197.826 320.617 197.866 322.678L197.986 328.878C197.998 329.542 197.586 329.95 196.991 329.961C196.405 329.973 195.997 329.6 195.966 328.975L195.949 328.106L195.9 328.107C195.327 329.261 194.032 330.009 192.694 330.034ZM193.238 328.354C194.713 328.325 195.855 327.287 195.829 325.95L195.814 325.139L193.278 325.345C192.02 325.457 191.318 326.027 191.335 326.906C191.352 327.804 192.115 328.375 193.238 328.354ZM204.051 329.835C201.112 329.892 199.159 327.888 199.095 324.617C199.033 321.366 200.896 319.24 203.826 319.183C205.808 319.145 207.527 320.167 208.004 321.593C208.065 321.758 208.108 321.933 208.111 322.08C208.121 322.617 207.747 322.956 207.229 322.966C206.78 322.975 206.523 322.804 206.26 322.34C205.714 321.374 204.982 320.919 203.899 320.94C202.248 320.972 201.201 322.369 201.243 324.556C201.286 326.792 202.405 328.099 204.036 328.067C205.178 328.045 205.862 327.524 206.343 326.626C206.626 326.113 206.847 325.933 207.306 325.924C207.823 325.914 208.211 326.258 208.221 326.785C208.224 326.951 208.189 327.128 208.114 327.334C207.605 328.761 205.954 329.798 204.051 329.835ZM210.641 329.698C210.007 329.71 209.579 329.289 209.565 328.605L209.402 320.14C209.39 319.496 209.792 319.068 210.387 319.057C210.973 319.045 211.391 319.457 211.404 320.102L211.421 320.98L211.469 320.979C211.73 319.822 212.663 319.032 213.688 319.013C214.059 319.005 214.344 319.088 214.523 319.25C214.721 319.403 214.814 319.655 214.82 319.987C214.827 320.319 214.724 320.565 214.522 320.735C214.311 320.925 214 321.019 213.561 321.027C212.116 321.065 211.549 322.043 211.573 323.322L211.674 328.565C211.687 329.248 211.266 329.686 210.641 329.698ZM219.712 329.533C216.774 329.59 214.801 327.606 214.738 324.296C214.674 320.996 216.578 318.937 219.507 318.881C222.436 318.824 224.418 320.808 224.482 324.108C224.546 327.418 222.651 329.476 219.712 329.533ZM219.679 327.795C221.339 327.763 222.378 326.434 222.334 324.15C222.29 321.875 221.191 320.587 219.541 320.619C217.891 320.651 216.842 321.98 216.886 324.255C216.93 326.539 218.029 327.827 219.679 327.795ZM229.604 329.342C227.582 329.381 226.082 328.58 225.57 327.33C225.499 327.175 225.476 327.029 225.474 326.892C225.463 326.365 225.838 326.045 226.365 326.035C226.717 326.028 227.023 326.188 227.294 326.574C227.837 327.394 228.459 327.753 229.68 327.729C230.881 327.706 231.681 327.173 231.665 326.324C231.652 325.65 231.245 325.296 230.136 325.054L228.508 324.705C226.507 324.274 225.512 323.317 225.484 321.852C225.448 319.997 227.035 318.736 229.476 318.689C231.331 318.653 232.873 319.571 233.189 320.776C233.211 320.892 233.232 320.99 233.234 321.087C233.243 321.556 232.956 321.874 232.429 321.884C232.087 321.891 231.782 321.78 231.571 321.452C231.097 320.679 230.464 320.281 229.429 320.301C228.297 320.323 227.526 320.895 227.542 321.695C227.554 322.34 228.061 322.779 229.149 323.012L230.748 323.352C232.916 323.809 233.76 324.564 233.79 326.087C233.826 327.991 232.142 329.294 229.604 329.342ZM91.9535 363.963C91.2993 363.976 90.8522 363.584 90.8407 362.988C90.8375 362.822 90.8725 362.607 90.965 362.341L95.0273 350.64C95.2954 349.853 95.7669 349.482 96.5382 349.468C97.2998 349.453 97.7753 349.795 98.0832 350.571L102.603 362.117C102.706 362.388 102.749 362.573 102.753 362.759C102.764 363.335 102.313 363.763 101.678 363.775C101.092 363.787 100.765 363.52 100.558 362.898L99.4251 359.883L94.0354 359.987L93.0295 363.034C92.8367 363.672 92.5198 363.952 91.9535 363.963ZM94.5575 358.189L98.8341 358.107L96.5962 351.967L96.5376 351.968L94.5575 358.189ZM105.038 363.74C104.403 363.752 103.975 363.331 103.962 362.647L103.799 354.182C103.786 353.538 104.188 353.11 104.784 353.098C105.37 353.087 105.788 353.499 105.8 354.143L105.817 355.022L105.866 355.021C106.127 353.864 107.059 353.074 108.085 353.054C108.456 353.047 108.74 353.13 108.919 353.292C109.118 353.445 109.21 353.697 109.217 354.029C109.223 354.361 109.12 354.607 108.919 354.777C108.707 354.967 108.397 355.06 107.957 355.069C106.512 355.106 105.945 356.084 105.97 357.363L106.071 362.607C106.084 363.29 105.663 363.728 105.038 363.74ZM114.148 363.574C111.053 363.634 109.199 361.706 109.135 358.387C109.072 355.126 110.887 352.981 113.796 352.925C116.53 352.872 118.453 354.808 118.507 357.61C118.52 358.294 118.137 358.692 117.483 358.704L111.273 358.824L111.274 358.873C111.31 360.747 112.387 361.899 114.066 361.866C115.219 361.844 115.933 361.43 116.694 360.351C116.913 360.083 117.126 359.971 117.429 359.965C117.937 359.956 118.314 360.28 118.324 360.808C118.327 360.974 118.273 361.17 118.189 361.377C117.541 362.737 116.062 363.537 114.148 363.574ZM111.254 357.349L116.39 357.25C116.31 355.64 115.284 354.596 113.819 354.624C112.365 354.652 111.331 355.746 111.254 357.349ZM129.743 363.313C125.759 363.389 123.215 360.645 123.129 356.154C123.043 351.692 125.508 348.831 129.442 348.755C132.03 348.705 134.124 349.925 135.043 351.988C135.185 352.268 135.259 352.56 135.264 352.823C135.275 353.409 134.892 353.798 134.306 353.809C133.789 353.819 133.442 353.572 133.187 353.01C132.503 351.451 131.1 350.638 129.479 350.669C126.921 350.718 125.302 352.849 125.365 356.11C125.428 359.401 127.108 361.449 129.696 361.399C131.414 361.366 132.718 360.608 133.343 359.072C133.567 358.55 133.846 358.33 134.325 358.321C134.92 358.31 135.338 358.712 135.35 359.288C135.355 359.59 135.283 359.875 135.133 360.2C134.261 362.122 132.359 363.262 129.743 363.313ZM141.439 363.048C138.5 363.105 136.528 361.121 136.464 357.811C136.401 354.511 138.305 352.452 141.234 352.396C144.163 352.339 146.145 354.323 146.209 357.623C146.272 360.933 144.378 362.991 141.439 363.048ZM141.406 361.31C143.066 361.278 144.105 359.949 144.061 357.664C144.017 355.39 142.917 354.102 141.267 354.134C139.617 354.165 138.568 355.495 138.612 357.77C138.656 360.054 139.756 361.342 141.406 361.31ZM148.596 362.9C147.971 362.912 147.534 362.501 147.52 361.808L147.357 353.342C147.345 352.698 147.727 352.271 148.342 352.259C148.948 352.247 149.376 352.659 149.388 353.313L149.404 354.123L149.453 354.122C149.987 352.94 151.047 352.216 152.629 352.186C154.894 352.142 156.22 353.562 156.266 355.915L156.376 361.637C156.389 362.33 155.958 362.758 155.333 362.77C154.718 362.782 154.271 362.371 154.257 361.678L154.155 356.366C154.125 354.823 153.386 353.988 151.922 354.016C150.438 354.045 149.501 355.118 149.532 356.709L149.629 361.767C149.643 362.46 149.211 362.888 148.596 362.9ZM159.718 362.686C159.073 362.698 158.646 362.306 158.632 361.603L158.484 353.919L157.752 353.933C157.254 353.943 156.906 353.656 156.896 353.129C156.886 352.621 157.222 352.293 157.72 352.283L158.452 352.269L158.433 351.263C158.394 349.271 159.343 348.325 161.11 348.281C162.233 348.26 162.777 348.611 162.788 349.177C162.794 349.519 162.632 349.727 162.293 349.831C162.147 349.873 161.972 349.906 161.757 349.91C160.869 349.937 160.506 350.364 160.524 351.301L160.542 352.229L161.928 352.202C162.426 352.192 162.774 352.508 162.784 353.016C162.794 353.543 162.458 353.842 161.96 353.852L160.603 353.878L160.751 361.562C160.764 362.265 160.352 362.674 159.718 362.686ZM167.636 362.533C165.401 362.576 164.006 361.148 163.96 358.795L163.85 353.083C163.837 352.38 164.258 351.952 164.883 351.94C165.498 351.928 165.946 352.339 165.959 353.042L166.061 358.344C166.091 359.906 166.85 360.732 168.304 360.704C169.828 360.674 170.725 359.602 170.694 358.001L170.597 352.953C170.583 352.25 171.015 351.822 171.63 351.81C172.255 351.798 172.692 352.209 172.706 352.912L172.869 361.358C172.881 362.012 172.489 362.44 171.884 362.451C171.278 362.463 170.86 362.051 170.848 361.407L170.831 360.547L170.782 360.548C170.24 361.79 169.208 362.503 167.636 362.533ZM178.367 362.336C176.346 362.375 174.846 361.574 174.334 360.324C174.262 360.169 174.24 360.023 174.237 359.886C174.227 359.359 174.602 359.039 175.129 359.029C175.481 359.022 175.787 359.182 176.058 359.568C176.601 360.387 177.223 360.747 178.444 360.723C179.645 360.7 180.445 360.167 180.429 359.317C180.416 358.644 180.009 358.29 178.9 358.048L177.272 357.698C175.271 357.268 174.276 356.31 174.248 354.846C174.212 352.991 175.799 351.729 178.24 351.682C180.095 351.647 181.637 352.564 181.953 353.769C181.975 353.886 181.996 353.983 181.998 354.081C182.007 354.55 181.72 354.868 181.193 354.878C180.851 354.885 180.546 354.773 180.335 354.445C179.861 353.673 179.228 353.275 178.193 353.295C177.061 353.317 176.29 353.888 176.306 354.689C176.318 355.333 176.825 355.773 177.913 356.006L179.512 356.346C181.679 356.803 182.524 357.558 182.554 359.081C182.59 360.985 180.906 362.287 178.367 362.336ZM184.737 350.19C184.063 350.203 183.505 349.666 183.493 349.002C183.48 348.329 184.016 347.791 184.69 347.778C185.373 347.765 185.93 348.282 185.943 348.955C185.956 349.619 185.42 350.176 184.737 350.19ZM184.968 362.199C184.333 362.211 183.905 361.78 183.892 361.106L183.73 352.7C183.717 352.016 184.128 351.569 184.763 351.557C185.398 351.544 185.826 351.976 185.839 352.659L186.001 361.066C186.014 361.739 185.603 362.187 184.968 362.199ZM188.835 362.125C188.21 362.137 187.772 361.725 187.759 361.032L187.596 352.567C187.583 351.922 187.966 351.495 188.581 351.483C189.186 351.471 189.614 351.883 189.627 352.537L189.642 353.348L189.691 353.347C190.225 352.164 191.286 351.441 192.867 351.41C195.133 351.366 196.459 352.786 196.504 355.14L196.615 360.861C196.628 361.554 196.197 361.983 195.572 361.995C194.957 362.007 194.509 361.595 194.496 360.902L194.394 355.59C194.364 354.048 193.625 353.212 192.16 353.24C190.676 353.269 189.74 354.342 189.77 355.934L189.868 360.991C189.881 361.684 189.45 362.113 188.835 362.125ZM202.654 365.541C200.788 365.557 199.3 364.863 198.576 363.763C198.435 363.532 198.372 363.318 198.367 363.074C198.358 362.586 198.712 362.227 199.249 362.217C199.571 362.211 199.778 362.314 200.067 362.592C200.924 363.454 201.654 363.821 202.66 363.821C204.378 363.808 205.404 362.811 205.377 361.376L205.345 359.745L205.296 359.746C204.742 360.87 203.545 361.626 202.081 361.654C199.493 361.704 197.775 359.715 197.714 356.542C197.652 353.33 199.273 351.296 201.929 351.245C203.384 351.217 204.53 351.928 205.178 353.077L205.217 353.077L205.201 352.247C205.187 351.563 205.639 351.154 206.244 351.142C206.849 351.131 207.306 351.522 207.319 352.206L207.495 361.296C207.544 363.835 205.71 365.511 202.654 365.541ZM202.614 359.925C204.264 359.893 205.331 358.525 205.291 356.416C205.25 354.307 204.13 352.941 202.48 352.973C200.859 353.004 199.83 354.372 199.872 356.51C199.913 358.658 200.993 359.956 202.614 359.925Z" fill="#5C5C5C"/>
<path d="M143.967 76.911C147.073 76.8512 149.542 74.2847 149.482 71.1787C149.468 70.4288 149.439 68.9291 147.903 67.0833C147.903 67.0833 147.87 69.2246 146.383 68.9436C143.979 68.4891 146.98 63.7277 142.553 61.9355C142.625 65.6848 138.148 66.8963 138.234 71.3955C138.294 74.5015 140.861 76.9709 143.967 76.911Z" stroke="#5C5C5C" stroke-width="1.2" stroke-linejoin="round"/>
<path d="M143.924 74.6623C145.373 74.6343 146.519 73.1009 146.483 71.2373C144.101 72.1834 143.211 70.1278 143.058 68.677C141.982 69.1127 141.224 70.832 141.241 71.7126C141.277 73.5762 142.474 74.6902 143.924 74.6623Z" stroke="#5C5C5C" stroke-width="1.2" stroke-linejoin="round"/>
<path d="M119.877 94.8747C119.884 95.2479 119.756 95.6331 119.493 96.0303C119.24 96.4272 118.902 96.8212 118.48 97.212C118.058 97.6029 117.598 97.9712 117.101 98.3168C116.613 98.6623 116.129 98.9657 115.648 99.227C115.168 99.4976 114.743 99.7065 114.372 99.8537C114.002 100.01 113.737 100.09 113.579 100.093C113.308 100.098 113.102 100.042 112.959 99.9229C112.826 99.8135 112.759 99.7121 112.757 99.6188C112.755 99.5161 112.777 99.413 112.821 99.3095C112.876 99.2151 113 99.124 113.194 99.0363C113.731 98.7832 114.271 98.5021 114.816 98.1928C115.361 97.8743 115.873 97.5517 116.352 97.2251C116.84 96.8982 117.273 96.5725 117.649 96.2479C118.026 95.9232 118.323 95.6234 118.542 95.3485C118.761 95.0642 118.868 94.8194 118.864 94.6141C118.858 94.3062 118.695 94.0806 118.375 93.9375C118.064 93.7848 117.549 93.7153 116.831 93.7292C116.411 93.7373 116.061 93.7627 115.782 93.8054C115.503 93.8481 115.261 93.8901 115.056 93.9314C114.861 93.9632 114.679 93.9807 114.511 93.9839C114.212 93.9897 114.06 93.8386 114.054 93.5307C114.052 93.3907 114.095 93.2451 114.186 93.094C114.276 92.9429 114.423 92.8327 114.628 92.7635C115.648 92.4171 116.457 92.0094 117.054 91.5405C117.652 91.0622 117.945 90.5384 117.934 89.9692C117.928 89.6239 117.626 89.4571 117.028 89.4686C116.749 89.474 116.432 89.5081 116.078 89.5709C115.725 89.6337 115.381 89.7104 115.046 89.8008C114.721 89.8818 114.443 89.9525 114.21 90.013C113.978 90.0735 113.834 90.1043 113.778 90.1053C113.685 90.1071 113.614 90.0805 113.567 90.0254C113.519 89.961 113.494 89.8961 113.493 89.8308C113.491 89.7468 113.559 89.6195 113.695 89.4488C113.832 89.2781 114.029 89.1016 114.287 88.9193C114.545 88.7276 114.855 88.5676 115.216 88.4393C115.587 88.3015 116.001 88.2281 116.458 88.2193C116.925 88.2103 117.337 88.2957 117.695 88.4755C118.053 88.646 118.338 88.8879 118.55 89.2012C118.761 89.5145 118.871 89.8765 118.879 90.2871C118.886 90.6977 118.764 91.1061 118.51 91.5124C118.257 91.9187 117.946 92.2607 117.578 92.5386C118.027 92.6046 118.422 92.751 118.762 92.9778C119.112 93.1951 119.383 93.4699 119.576 93.8023C119.769 94.1253 119.87 94.4827 119.877 94.8747ZM126.569 98.9324C126 98.9434 125.47 98.8089 124.979 98.529C124.497 98.2396 124.106 97.813 123.806 97.2494C123.506 96.6857 123.348 95.9933 123.332 95.1721C123.318 94.4536 123.421 93.7608 123.642 93.0938C123.872 92.4266 124.127 91.8475 124.406 91.3567C124.293 91.2936 124.234 91.1407 124.23 90.898C124.223 90.5714 124.31 90.2477 124.491 89.9268C124.681 89.5964 124.932 89.2975 125.244 89.0301C125.565 88.7626 125.921 88.5457 126.309 88.3795C126.708 88.2131 127.112 88.126 127.523 88.118C128.176 88.1055 128.748 88.2625 129.24 88.589C129.741 88.9061 130.132 89.3513 130.414 89.9247C130.705 90.4978 130.858 91.1577 130.872 91.9042C130.891 92.9027 130.793 93.8287 130.576 94.6824C130.359 95.5268 130.051 96.2655 129.652 96.8986C129.263 97.5316 128.801 98.0259 128.267 98.3816C127.741 98.7371 127.175 98.9207 126.569 98.9324ZM126.032 89.9811C126.126 90.026 126.175 90.0997 126.177 90.2024C126.177 90.249 126.165 90.3053 126.138 90.3712C126.12 90.4275 126.061 90.5173 125.961 90.6406C125.824 90.7926 125.679 91.0428 125.527 91.3911C125.375 91.7394 125.229 92.139 125.088 92.5898C124.948 93.0406 124.835 93.5095 124.751 93.9966C124.667 94.4743 124.629 94.9277 124.638 95.357C124.652 96.1222 124.818 96.7025 125.133 97.0978C125.449 97.4838 125.872 97.6716 126.404 97.6614C126.815 97.6535 127.214 97.5058 127.6 97.2182C127.986 96.9214 128.333 96.518 128.641 96.008C128.948 95.4886 129.189 94.8912 129.363 94.2157C129.546 93.5401 129.629 92.8103 129.614 92.0265C129.604 91.4852 129.515 91.0108 129.349 90.6033C129.182 90.1958 128.957 89.8781 128.672 89.6502C128.397 89.4221 128.082 89.3115 127.728 89.3183C127.355 89.3255 127.029 89.3925 126.752 89.5192C126.474 89.6459 126.234 89.7999 126.032 89.9811ZM137.119 98.379C136.597 98.3891 136.131 98.2113 135.723 97.8458C135.314 97.4709 134.991 96.9544 134.755 96.2962C134.518 95.6286 134.391 94.8609 134.374 93.9931C134.365 93.5172 134.408 93.0589 134.502 92.6184C134.596 92.1685 134.719 91.7694 134.871 91.421C135.023 91.0634 135.18 90.7803 135.344 90.5717C135.508 90.3632 135.651 90.2578 135.772 90.2554C135.828 90.2544 135.885 90.2813 135.942 90.3362C135.999 90.3818 136.029 90.4745 136.031 90.6145C136.034 90.7545 136.006 90.9977 135.947 91.3443C135.898 91.6906 135.846 92.1117 135.79 92.6075C135.743 93.0939 135.726 93.6356 135.737 94.2329C135.754 95.0914 135.869 95.7613 136.084 96.2425C136.308 96.7237 136.611 96.9605 136.994 96.9531C137.516 96.9431 137.974 96.7055 138.366 96.2406C138.768 95.7661 139.077 95.116 139.295 94.2903C139.512 93.4553 139.61 92.4919 139.589 91.4001C139.575 90.6722 139.453 90.1331 139.222 89.7829C139.001 89.4324 138.717 89.2605 138.372 89.2671C138.092 89.2725 137.841 89.3287 137.619 89.4357C137.406 89.5331 137.212 89.6536 137.038 89.797C136.872 89.9308 136.716 90.0505 136.569 90.1561C136.43 90.2521 136.296 90.3014 136.165 90.3039C136.016 90.3067 135.908 90.2668 135.841 90.1841C135.783 90.1012 135.753 89.9944 135.751 89.8638C135.745 89.5558 135.851 89.2551 136.07 88.9615C136.288 88.6679 136.582 88.4242 136.952 88.2303C137.321 88.0272 137.72 87.9215 138.15 87.9132C138.672 87.9031 139.138 88.0762 139.546 88.4324C139.964 88.7884 140.295 89.2861 140.541 89.9255C140.786 90.5555 140.917 91.2858 140.933 92.1163C140.951 93.0215 140.864 93.854 140.673 94.6138C140.483 95.3736 140.211 96.037 139.858 96.6039C139.504 97.1615 139.093 97.5941 138.622 97.9019C138.162 98.2095 137.661 98.3686 137.119 98.379ZM150.218 99.0366C149.612 99.0483 149.049 98.9145 148.53 98.6351C148.021 98.3555 147.556 97.9911 147.137 97.5417C146.727 97.0922 146.358 96.6092 146.031 96.0928C145.713 95.5668 145.437 95.0727 145.204 94.6105C145.06 95.3694 144.946 95.983 144.862 96.4514C144.787 96.9196 144.723 97.2755 144.672 97.5192C144.63 97.7628 144.587 97.927 144.542 98.0119C144.497 98.0967 144.437 98.1399 144.362 98.1413C144.157 98.1453 143.959 98.0371 143.768 97.8167C143.577 97.5964 143.478 97.3089 143.471 96.9543C143.464 96.581 143.52 96.0852 143.638 95.4668C143.757 94.8391 143.916 94.1452 144.116 93.3852C144.326 92.6157 144.567 91.8222 144.841 91.0048C145.114 90.178 145.397 89.3744 145.69 88.594C145.992 87.804 146.296 87.084 146.601 86.434C146.753 86.1137 146.885 85.9058 146.995 85.8103C147.114 85.7146 147.258 85.6652 147.426 85.662C147.697 85.6567 147.834 85.7801 147.839 86.0321C147.841 86.1254 147.815 86.2286 147.761 86.3416C147.717 86.4545 147.668 86.5815 147.615 86.7225C147.454 87.1364 147.277 87.6019 147.081 88.1191C146.895 88.6361 146.705 89.1765 146.51 89.7404C146.325 90.304 146.149 90.8629 145.983 91.4169C145.816 91.9708 145.672 92.4824 145.55 92.9515C145.946 92.6638 146.412 92.3748 146.948 92.0844C147.484 91.794 148.039 91.5312 148.613 91.2961C149.187 91.0517 149.729 90.8545 150.24 90.7047C150.75 90.5548 151.174 90.4766 151.509 90.4702C151.687 90.4667 151.823 90.5201 151.919 90.6303C152.023 90.731 152.077 90.8466 152.079 90.9773C152.081 91.0799 152.051 91.1832 151.987 91.2871C151.933 91.3815 151.813 91.4678 151.628 91.5461C151.016 91.7726 150.41 92.0036 149.807 92.2393C149.205 92.4656 148.575 92.7111 147.917 92.9759C147.269 93.2311 146.56 93.5341 145.792 93.885C146.043 94.2909 146.336 94.7287 146.672 95.1983C147.007 95.6586 147.366 96.0951 147.747 96.5078C148.128 96.9112 148.518 97.2444 148.915 97.5075C149.312 97.7612 149.706 97.8843 150.098 97.8767C150.611 97.8668 151.104 97.75 151.576 97.5262C152.047 97.3024 152.481 97.0326 152.876 96.717C153.281 96.4011 153.634 96.0956 153.937 95.8004C154.239 95.4958 154.477 95.2578 154.651 95.0865C154.743 95.0007 154.826 94.9431 154.9 94.9136C154.983 94.8747 155.057 94.8546 155.123 94.8533C155.253 94.8508 155.343 94.9191 155.393 95.0582C155.451 95.1877 155.407 95.3333 155.261 95.4948C155.152 95.6276 154.983 95.8315 154.755 96.1066C154.527 96.3818 154.248 96.6859 153.918 97.0189C153.598 97.3425 153.24 97.6575 152.844 97.9638C152.458 98.27 152.038 98.5208 151.584 98.7162C151.14 98.9208 150.685 99.0276 150.218 99.0366ZM156.666 98.3662C156.209 98.375 155.81 98.28 155.47 98.0812C155.139 97.8729 154.882 97.6025 154.698 97.27C154.515 96.9374 154.419 96.5939 154.412 96.2393C154.398 95.4927 154.515 94.809 154.765 94.1881C155.014 93.5578 155.33 93.001 155.713 92.5175C156.105 92.0245 156.507 91.606 156.921 91.262C157.344 90.9178 157.726 90.6584 158.068 90.4837C158.419 90.2996 158.67 90.2061 158.819 90.2032C159.117 90.1975 159.27 90.3439 159.275 90.6425C159.278 90.7825 159.188 90.9476 159.005 91.1378C158.822 91.3187 158.588 91.5333 158.303 91.7814C158.019 92.0296 157.716 92.3109 157.395 92.6251C157.074 92.93 156.773 93.2766 156.491 93.6647C156.209 94.0436 155.979 94.4681 155.802 94.9383C155.624 95.3991 155.54 95.9048 155.551 96.4554C155.562 97.0153 155.796 97.2908 156.253 97.282C156.673 97.2739 157.1 97.1863 157.536 97.0192C157.981 96.8519 158.415 96.6382 158.84 96.378C159.273 96.1082 159.688 95.8295 160.084 95.5418C160.48 95.2541 160.839 94.9812 161.16 94.7229C161.482 94.4553 161.753 94.2401 161.974 94.0771C162.195 93.9142 162.352 93.8318 162.445 93.83C162.632 93.8264 162.727 93.9272 162.731 94.1325C162.734 94.2912 162.631 94.5032 162.422 94.7686C162.212 95.034 161.928 95.3242 161.57 95.6392C161.212 95.9542 160.812 96.2746 160.37 96.6005C159.928 96.9171 159.481 97.2104 159.029 97.4805C158.577 97.7413 158.142 97.955 157.725 98.1218C157.318 98.279 156.964 98.3605 156.666 98.3662ZM162.595 98.42C162.24 98.4268 161.943 98.2692 161.703 97.9471C161.473 97.6154 161.353 97.1837 161.342 96.6518C161.333 96.1572 161.445 95.665 161.678 95.175C161.921 94.6849 162.243 94.212 162.645 93.7561C163.047 93.3003 163.487 92.8811 163.965 92.4985C164.443 92.1065 164.921 91.7659 165.401 91.4766C165.89 91.1871 166.339 90.9591 166.746 90.7925C167.154 90.626 167.479 90.5404 167.722 90.5357C167.852 90.5332 167.96 90.5591 168.045 90.6135C168.13 90.6585 168.174 90.7463 168.176 90.877C168.178 90.961 168.147 91.0409 168.083 91.1168C168.092 91.1166 168.102 91.1165 168.111 91.1163C168.316 91.1123 168.421 91.2317 168.426 91.4743C168.427 91.5583 168.398 91.7315 168.338 91.9941C168.277 92.2473 168.209 92.566 168.132 92.9502C168.056 93.3344 167.989 93.7605 167.933 94.2283C167.876 94.6868 167.853 95.154 167.862 95.6299C167.87 96.0312 168.027 96.2288 168.335 96.2229C168.681 96.2163 169.029 96.1302 169.381 95.9647C169.732 95.7992 170.074 95.6013 170.405 95.3709C170.737 95.1311 171.04 94.8965 171.316 94.6672C171.591 94.4285 171.826 94.2279 172.018 94.0655C172.211 93.9031 172.35 93.8211 172.434 93.8195C172.508 93.818 172.574 93.8401 172.631 93.8857C172.688 93.9313 172.717 94.0054 172.719 94.108C172.721 94.2013 172.631 94.3711 172.449 94.6173C172.267 94.8635 172.025 95.1436 171.723 95.4575C171.421 95.7713 171.082 96.0766 170.705 96.3733C170.328 96.6699 169.94 96.9154 169.543 97.1098C169.145 97.3042 168.764 97.4049 168.4 97.4119C168.12 97.4173 167.862 97.3382 167.626 97.1748C167.398 97.0018 167.21 96.7067 167.062 96.2895C166.924 95.8721 166.847 95.2948 166.833 94.5576L166.826 94.2076C166.384 94.9723 165.916 95.6721 165.424 96.307C164.942 96.9418 164.457 97.4506 163.97 97.8334C163.492 98.216 163.033 98.4115 162.595 98.42ZM167.475 91.5486C167.429 91.5682 167.364 91.5974 167.281 91.6364C166.855 91.8406 166.412 92.0919 165.951 92.3902C165.499 92.6882 165.058 93.0188 164.626 93.3819C164.203 93.7448 163.823 94.1208 163.485 94.5101C163.148 94.8993 162.88 95.2919 162.682 95.6878C162.484 96.0837 162.389 96.4682 162.396 96.8415C162.398 96.9628 162.424 97.0557 162.472 97.1201C162.529 97.1843 162.623 97.2152 162.753 97.2127C162.94 97.2091 163.18 97.0878 163.474 96.8487C163.768 96.6003 164.089 96.2768 164.436 95.878C164.792 95.4791 165.148 95.0381 165.503 94.5552C165.857 94.0723 166.193 93.585 166.511 93.0935C166.837 92.6018 167.118 92.1483 167.353 91.733C167.389 91.667 167.43 91.6055 167.475 91.5486ZM174.208 98.3921C173.49 98.406 172.921 98.1836 172.501 97.7249C172.091 97.2567 171.877 96.598 171.861 95.7489C171.851 95.2263 171.909 94.6137 172.035 93.9112C172.171 93.1991 172.343 92.449 172.552 91.6608C172.77 90.8631 173.007 90.0744 173.263 89.2946C173.518 88.5149 173.766 87.7913 174.005 87.1239C174.253 86.447 174.471 85.8827 174.658 85.431C174.766 85.1769 174.922 85.0479 175.127 85.0439C175.407 85.0385 175.55 85.2085 175.557 85.5537C175.559 85.6657 175.512 85.8953 175.416 86.2426C175.32 86.5898 175.193 87.0217 175.035 87.5382C174.877 88.0453 174.706 88.6087 174.522 89.2284C174.337 89.848 174.149 90.4865 173.956 91.1436C173.773 91.7913 173.603 92.434 173.447 93.0718C173.292 93.7002 173.168 94.2907 173.076 94.8433C172.984 95.3958 172.941 95.8681 172.949 96.26C172.954 96.5119 173.023 96.7113 173.156 96.8581C173.299 96.9954 173.487 97.0618 173.72 97.0573C174.15 97.049 174.577 96.9567 175.003 96.7805C175.438 96.5947 175.854 96.372 176.251 96.1123C176.647 95.8433 177.006 95.5797 177.328 95.3214C177.658 95.0537 177.939 94.8335 178.169 94.6611C178.399 94.4793 178.56 94.3875 178.654 94.3857C178.859 94.3817 178.964 94.4917 178.968 94.7157C178.97 94.7903 178.898 94.9318 178.752 95.1399C178.607 95.3388 178.411 95.5759 178.164 95.8514C177.917 96.1269 177.629 96.4125 177.298 96.7082C176.977 96.9945 176.637 97.2671 176.278 97.5261C175.928 97.7755 175.572 97.9784 175.211 98.1347C174.86 98.3002 174.525 98.386 174.208 98.3921Z" fill="#5C5C5C"/>
<path d="M141.903 125.46C142.732 125.444 143.39 124.759 143.374 123.931C143.358 123.103 142.674 122.444 141.845 122.46C141.017 122.476 140.359 123.161 140.375 123.989C140.391 124.817 141.075 125.476 141.903 125.46Z" stroke="#5C5C5C" stroke-linecap="round" stroke-linejoin="round"/>
<path d="M137.375 124.047C137.423 126.532 139.476 128.507 141.961 128.459C142.755 128.444 143.496 128.224 144.137 127.851C145.823 126.868 146.417 126.123 149.402 125.315C151.067 124.865 152.375 123.914 152.343 122.258C152.311 120.601 150.942 119.284 149.286 119.316L141.787 119.461C139.302 119.509 137.327 121.562 137.375 124.047Z" stroke="#5C5C5C" stroke-width="1.3" stroke-linecap="round" stroke-linejoin="round"/>
<path d="M137.375 124.047L137.432 127.046C137.48 129.531 139.534 131.507 142.018 131.459C142.812 131.443 143.554 131.223 144.194 130.85C145.88 129.868 146.474 129.122 149.459 128.315C151.125 127.864 152.433 126.914 152.401 125.257L152.343 122.258" stroke="#5C5C5C" stroke-width="1.3" stroke-linecap="round" stroke-linejoin="round"/>
<path d="M132.152 150.648C132.159 151.022 132.031 151.407 131.768 151.804C131.514 152.201 131.177 152.595 130.755 152.986C130.333 153.377 129.873 153.745 129.376 154.091C128.888 154.436 128.403 154.739 127.923 155.001C127.443 155.271 127.017 155.48 126.647 155.627C126.276 155.784 126.012 155.864 125.853 155.867C125.583 155.872 125.376 155.815 125.234 155.697C125.101 155.587 125.034 155.486 125.032 155.393C125.03 155.29 125.051 155.187 125.096 155.083C125.15 154.989 125.275 154.898 125.469 154.81C126.005 154.557 126.546 154.276 127.091 153.967C127.636 153.648 128.147 153.325 128.627 152.999C129.115 152.672 129.548 152.346 129.924 152.022C130.3 151.697 130.598 151.397 130.817 151.122C131.035 150.838 131.143 150.593 131.139 150.388C131.133 150.08 130.97 149.854 130.65 149.711C130.339 149.559 129.824 149.489 129.105 149.503C128.685 149.511 128.336 149.536 128.057 149.579C127.777 149.622 127.535 149.664 127.331 149.705C127.135 149.737 126.954 149.754 126.786 149.758C126.487 149.763 126.335 149.612 126.329 149.304C126.326 149.164 126.37 149.019 126.461 148.868C126.551 148.717 126.698 148.607 126.902 148.537C127.922 148.191 128.731 147.783 129.329 147.314C129.927 146.836 130.22 146.312 130.209 145.743C130.202 145.398 129.9 145.231 129.303 145.242C129.023 145.248 128.707 145.282 128.353 145.345C127.999 145.408 127.656 145.484 127.321 145.575C126.996 145.656 126.717 145.726 126.485 145.787C126.253 145.847 126.109 145.878 126.053 145.879C125.96 145.881 125.889 145.854 125.841 145.799C125.793 145.735 125.769 145.67 125.768 145.605C125.766 145.521 125.833 145.393 125.97 145.223C126.107 145.052 126.304 144.875 126.562 144.693C126.82 144.501 127.129 144.341 127.491 144.213C127.862 144.075 128.276 144.002 128.733 143.993C129.2 143.984 129.612 144.07 129.97 144.249C130.328 144.42 130.613 144.662 130.824 144.975C131.036 145.288 131.145 145.65 131.153 146.061C131.161 146.471 131.038 146.88 130.785 147.286C130.531 147.692 130.221 148.035 129.852 148.312C130.302 148.378 130.697 148.525 131.037 148.752C131.387 148.969 131.658 149.244 131.851 149.576C132.044 149.899 132.144 150.257 132.152 150.648ZM138.844 154.706C138.274 154.717 137.744 154.583 137.254 154.303C136.772 154.013 136.381 153.587 136.081 153.023C135.78 152.46 135.622 151.767 135.607 150.946C135.593 150.227 135.696 149.535 135.917 148.868C136.146 148.2 136.401 147.621 136.681 147.13C136.568 147.067 136.509 146.914 136.504 146.672C136.498 146.345 136.585 146.021 136.766 145.701C136.955 145.37 137.206 145.071 137.519 144.804C137.84 144.536 138.195 144.319 138.584 144.153C138.982 143.987 139.387 143.9 139.797 143.892C140.451 143.879 141.023 144.036 141.515 144.363C142.016 144.68 142.407 145.125 142.689 145.698C142.98 146.272 143.133 146.931 143.147 147.678C143.166 148.676 143.067 149.603 142.85 150.456C142.633 151.301 142.326 152.039 141.927 152.672C141.538 153.305 141.076 153.8 140.541 154.155C140.016 154.511 139.45 154.695 138.844 154.706ZM138.307 145.755C138.401 145.8 138.449 145.874 138.451 145.976C138.452 146.023 138.439 146.079 138.413 146.145C138.395 146.201 138.336 146.291 138.236 146.414C138.099 146.566 137.954 146.817 137.802 147.165C137.65 147.513 137.504 147.913 137.363 148.364C137.222 148.814 137.11 149.283 137.026 149.77C136.942 150.248 136.904 150.702 136.912 151.131C136.927 151.896 137.092 152.476 137.408 152.872C137.724 153.258 138.147 153.445 138.679 153.435C139.09 153.427 139.488 153.28 139.875 152.992C140.261 152.695 140.608 152.292 140.916 151.782C141.223 151.262 141.464 150.665 141.637 149.989C141.82 149.314 141.904 148.584 141.889 147.8C141.879 147.259 141.79 146.785 141.624 146.377C141.457 145.97 141.232 145.652 140.947 145.424C140.672 145.196 140.357 145.085 140.003 145.092C139.629 145.099 139.304 145.166 139.026 145.293C138.749 145.42 138.509 145.574 138.307 145.755ZM147.089 154.575C146.884 154.579 146.682 154.518 146.483 154.391C146.294 154.264 146.197 154.051 146.191 153.752C146.186 153.51 146.243 153.313 146.362 153.161C146.48 153.009 146.618 152.899 146.775 152.831C146.933 152.753 147.072 152.713 147.193 152.711C147.314 152.709 147.45 152.734 147.601 152.787C147.76 152.84 147.898 152.935 148.012 153.073C148.127 153.202 148.186 153.397 148.192 153.658C148.197 153.919 148.089 154.136 147.868 154.308C147.647 154.48 147.388 154.57 147.089 154.575ZM151.331 155.236C151.228 155.238 151.138 155.202 151.062 155.129C150.986 155.056 150.947 154.954 150.944 154.823C150.94 154.571 151.058 154.177 151.3 153.64C151.541 153.103 151.87 152.471 152.285 151.745C152.701 151.008 153.166 150.22 153.682 149.379C154.198 148.529 154.727 147.66 155.27 146.772C155.813 145.884 156.338 145.02 156.844 144.179C156.296 144.283 155.747 144.406 155.199 144.547C154.66 144.688 154.154 144.824 153.681 144.954C153.207 145.085 152.803 145.195 152.469 145.286C152.134 145.367 151.897 145.409 151.757 145.412C151.487 145.417 151.299 145.364 151.194 145.254C151.099 145.144 151.049 145.01 151.046 144.851C151.044 144.721 151.167 144.587 151.417 144.452C151.666 144.316 151.995 144.184 152.403 144.055C152.811 143.916 153.252 143.786 153.726 143.665C154.209 143.544 154.678 143.437 155.134 143.344C155.599 143.251 156.008 143.178 156.362 143.124C156.716 143.071 156.972 143.043 157.131 143.04C157.308 143.036 157.481 143.075 157.651 143.156C157.82 143.236 157.963 143.346 158.077 143.483C158.201 143.621 158.265 143.769 158.268 143.928C158.269 144.002 158.185 144.214 158.014 144.563C157.853 144.911 157.623 145.359 157.326 145.906C157.038 146.453 156.704 147.057 156.325 147.718C155.955 148.379 155.562 149.058 155.146 149.757C154.739 150.456 154.332 151.136 153.925 151.797C153.517 152.449 153.132 153.045 152.769 153.584C152.415 154.123 152.102 154.558 151.828 154.89C151.764 154.966 151.691 155.042 151.608 155.118C151.526 155.195 151.433 155.234 151.331 155.236ZM159.333 157.826C158.615 157.84 158.086 157.78 157.747 157.646C157.409 157.513 157.237 157.33 157.233 157.096C157.23 156.947 157.274 156.825 157.366 156.73C157.466 156.634 157.591 156.585 157.741 156.582C157.899 156.579 158.128 156.598 158.428 156.639C158.728 156.689 159.022 156.712 159.311 156.706C160.273 156.688 161.056 156.388 161.661 155.807C162.265 155.226 162.72 154.344 163.024 153.162C163.328 151.97 163.518 150.455 163.594 148.614C163.325 149.189 163.019 149.764 162.675 150.34C162.341 150.907 161.978 151.427 161.585 151.901C161.202 152.366 160.803 152.743 160.389 153.031C159.974 153.319 159.562 153.467 159.151 153.475C158.759 153.482 158.468 153.39 158.278 153.197C158.097 153.005 158.002 152.685 157.993 152.237C157.985 151.835 158.089 151.409 158.304 150.956C158.52 150.495 158.809 150.032 159.174 149.567C159.538 149.103 159.941 148.661 160.381 148.242C160.82 147.813 161.261 147.436 161.703 147.11C162.154 146.775 162.574 146.51 162.962 146.316C163.35 146.122 163.666 146.022 163.908 146.017C164.151 146.013 164.339 146.093 164.473 146.259C164.607 146.424 164.678 146.74 164.687 147.207C164.708 148.298 164.692 149.363 164.637 150.4C164.591 151.428 164.475 152.387 164.286 153.278C164.098 154.168 163.805 154.948 163.407 155.619C163.019 156.299 162.492 156.831 161.828 157.218C161.163 157.604 160.332 157.807 159.333 157.826ZM163.316 147.247C162.855 147.555 162.381 147.9 161.894 148.283C161.406 148.666 160.952 149.071 160.531 149.499C160.119 149.927 159.787 150.368 159.534 150.821C159.281 151.274 159.159 151.724 159.168 152.172C159.171 152.312 159.261 152.38 159.438 152.377C159.578 152.374 159.767 152.263 160.006 152.044C160.253 151.815 160.528 151.516 160.829 151.146C161.129 150.767 161.434 150.355 161.743 149.91C162.061 149.456 162.355 148.997 162.627 148.535C162.898 148.072 163.127 147.643 163.316 147.247Z" fill="#5C5C5C"/>
<path d="M139.632 182.773C139.571 179.635 142.197 176.483 144.047 174.657C145.051 173.665 146.613 173.635 147.655 174.587C149.574 176.341 152.319 179.389 152.379 182.527C152.439 185.603 150.086 188.814 146.126 188.89C142.166 188.967 139.691 185.849 139.632 182.773Z" stroke="#5C5C5C" stroke-width="1.4"/>
<path d="M149.01 182.834C149.042 184.49 147.725 185.859 146.069 185.891" stroke="#5C5C5C" stroke-width="1.4" stroke-linecap="round" stroke-linejoin="round"/>
<path d="M130.268 211.596C130.119 211.599 129.983 211.532 129.859 211.394C129.735 211.266 129.67 211.057 129.664 210.768C129.662 210.618 129.698 210.314 129.773 209.855C129.857 209.396 129.959 208.853 130.077 208.225C129.593 208.281 129.099 208.337 128.596 208.394C128.103 208.441 127.609 208.478 127.114 208.506C126.867 208.744 126.669 208.898 126.521 208.966C126.382 209.025 126.224 209.056 126.047 209.059C125.72 209.065 125.495 209.018 125.372 208.918C125.248 208.808 125.185 208.665 125.182 208.488C125.177 208.264 125.272 208.07 125.465 207.908C125.657 207.736 125.968 207.618 126.396 207.554C126.851 206.948 127.33 206.36 127.832 205.79C128.344 205.211 128.846 204.632 129.339 204.053C129.841 203.464 130.301 202.853 130.718 202.22C131.135 201.586 131.486 200.912 131.771 200.197C131.851 199.999 131.942 199.876 132.044 199.828C132.155 199.77 132.28 199.744 132.421 199.75C132.579 199.757 132.707 199.829 132.803 199.967C132.899 200.105 132.95 200.324 132.955 200.622C132.957 200.716 132.92 200.954 132.843 201.339C132.767 201.723 132.664 202.215 132.536 202.815C132.407 203.405 132.266 204.062 132.112 204.783C131.957 205.496 131.799 206.232 131.636 206.991C132.372 206.902 133.019 206.824 133.578 206.757C134.137 206.691 134.486 206.656 134.626 206.653C134.859 206.649 135.014 206.674 135.09 206.728C135.165 206.773 135.204 206.861 135.207 206.992C135.208 207.057 135.051 207.154 134.736 207.281C134.421 207.399 133.98 207.529 133.413 207.671C132.847 207.803 132.181 207.928 131.418 208.045C131.307 208.552 131.199 209.044 131.097 209.522C130.994 209.99 130.904 210.431 130.828 210.843C130.777 211.115 130.706 211.308 130.615 211.421C130.533 211.535 130.418 211.593 130.268 211.596ZM131.077 203.431C130.732 203.904 130.372 204.387 129.999 204.88C129.635 205.372 129.266 205.846 128.892 206.302C128.528 206.757 128.171 207.16 127.823 207.512C128.214 207.458 128.615 207.404 129.024 207.349C129.434 207.285 129.853 207.226 130.281 207.171L131.077 203.431ZM136.009 210.799C135.804 210.803 135.602 210.742 135.403 210.615C135.214 210.488 135.117 210.275 135.111 209.976C135.106 209.734 135.163 209.537 135.281 209.385C135.4 209.233 135.538 209.123 135.695 209.055C135.852 208.977 135.992 208.937 136.113 208.935C136.234 208.933 136.37 208.958 136.52 209.011C136.68 209.064 136.817 209.159 136.932 209.297C137.047 209.426 137.106 209.621 137.111 209.882C137.116 210.143 137.009 210.36 136.788 210.532C136.567 210.705 136.307 210.794 136.009 210.799ZM144.195 210.613C143.625 210.624 143.095 210.49 142.605 210.21C142.123 209.921 141.732 209.494 141.432 208.93C141.131 208.367 140.973 207.674 140.958 206.853C140.944 206.135 141.047 205.442 141.268 204.775C141.497 204.108 141.752 203.529 142.032 203.038C141.919 202.975 141.86 202.822 141.855 202.579C141.849 202.252 141.936 201.929 142.117 201.608C142.306 201.277 142.557 200.979 142.869 200.711C143.191 200.444 143.546 200.227 143.935 200.061C144.333 199.894 144.738 199.807 145.148 199.799C145.802 199.787 146.374 199.944 146.866 200.27C147.367 200.587 147.758 201.032 148.04 201.606C148.331 202.179 148.484 202.839 148.498 203.585C148.517 204.584 148.418 205.51 148.201 206.363C147.984 207.208 147.677 207.947 147.278 208.58C146.889 209.213 146.427 209.707 145.892 210.063C145.367 210.418 144.801 210.602 144.195 210.613ZM143.658 201.662C143.752 201.707 143.8 201.781 143.802 201.883C143.803 201.93 143.79 201.986 143.764 202.052C143.746 202.109 143.687 202.198 143.587 202.322C143.45 202.474 143.305 202.724 143.153 203.072C143.001 203.42 142.855 203.82 142.714 204.271C142.573 204.722 142.461 205.191 142.377 205.678C142.293 206.155 142.255 206.609 142.263 207.038C142.278 207.803 142.443 208.383 142.759 208.779C143.074 209.165 143.498 209.353 144.03 209.342C144.441 209.335 144.839 209.187 145.226 208.899C145.612 208.602 145.959 208.199 146.267 207.689C146.574 207.17 146.815 206.572 146.988 205.897C147.171 205.221 147.255 204.491 147.24 203.708C147.23 203.166 147.141 202.692 146.975 202.284C146.808 201.877 146.583 201.559 146.298 201.331C146.023 201.103 145.708 200.993 145.354 200.999C144.98 201.007 144.655 201.074 144.377 201.2C144.1 201.327 143.86 201.481 143.658 201.662ZM152.765 211.218C152.662 211.22 152.573 211.185 152.497 211.112C152.421 211.038 152.381 210.936 152.379 210.806C152.374 210.554 152.492 210.159 152.734 209.623C152.976 209.086 153.304 208.454 153.72 207.727C154.135 206.991 154.601 206.203 155.116 205.362C155.632 204.512 156.162 203.643 156.705 202.755C157.248 201.867 157.772 201.003 158.279 200.162C157.73 200.266 157.182 200.389 156.634 200.53C156.095 200.671 155.589 200.807 155.115 200.937C154.642 201.068 154.238 201.178 153.903 201.269C153.569 201.35 153.332 201.392 153.192 201.394C152.921 201.4 152.733 201.347 152.629 201.237C152.533 201.127 152.484 200.993 152.481 200.834C152.478 200.703 152.602 200.57 152.851 200.435C153.101 200.299 153.429 200.167 153.838 200.038C154.246 199.899 154.687 199.769 155.16 199.648C155.643 199.527 156.113 199.42 156.568 199.327C157.033 199.234 157.443 199.161 157.796 199.107C158.15 199.054 158.406 199.025 158.565 199.022C158.742 199.019 158.916 199.058 159.085 199.138C159.255 199.219 159.397 199.328 159.512 199.466C159.636 199.604 159.699 199.752 159.702 199.911C159.704 199.985 159.619 200.197 159.448 200.546C159.287 200.894 159.058 201.342 158.76 201.889C158.472 202.436 158.138 203.04 157.759 203.701C157.389 204.361 156.996 205.041 156.58 205.74C156.173 206.438 155.766 207.118 155.359 207.78C154.952 208.432 154.566 209.027 154.203 209.566C153.85 210.105 153.536 210.541 153.262 210.873C153.198 210.949 153.125 211.025 153.043 211.101C152.96 211.177 152.868 211.216 152.765 211.218ZM160.767 213.809C160.049 213.823 159.52 213.763 159.182 213.629C158.843 213.496 158.672 213.312 158.667 213.079C158.664 212.93 158.708 212.807 158.8 212.712C158.901 212.617 159.026 212.568 159.175 212.565C159.334 212.562 159.563 212.581 159.862 212.622C160.162 212.672 160.457 212.694 160.746 212.689C161.707 212.67 162.49 212.371 163.095 211.789C163.7 211.208 164.154 210.327 164.458 209.145C164.762 207.953 164.952 206.437 165.029 204.597C164.76 205.171 164.453 205.747 164.11 206.323C163.775 206.889 163.412 207.41 163.02 207.884C162.637 208.349 162.238 208.725 161.823 209.013C161.409 209.301 160.996 209.449 160.586 209.457C160.194 209.465 159.902 209.372 159.712 209.18C159.531 208.988 159.436 208.667 159.427 208.219C159.42 207.818 159.524 207.391 159.739 206.939C159.954 206.478 160.244 206.015 160.608 205.55C160.973 205.086 161.375 204.644 161.815 204.225C162.255 203.796 162.696 203.419 163.137 203.093C163.588 202.758 164.008 202.493 164.396 202.299C164.785 202.104 165.1 202.005 165.343 202C165.585 201.996 165.774 202.076 165.907 202.241C166.041 202.407 166.113 202.723 166.122 203.189C166.143 204.281 166.126 205.346 166.071 206.383C166.026 207.411 165.909 208.37 165.721 209.26C165.533 210.151 165.239 210.931 164.842 211.602C164.453 212.281 163.927 212.814 163.262 213.2C162.598 213.587 161.766 213.789 160.767 213.809ZM164.75 203.23C164.289 203.538 163.815 203.883 163.328 204.266C162.841 204.648 162.386 205.054 161.965 205.482C161.553 205.91 161.221 206.351 160.968 206.803C160.716 207.256 160.594 207.707 160.602 208.155C160.605 208.295 160.695 208.363 160.872 208.36C161.012 208.357 161.202 208.246 161.44 208.027C161.688 207.798 161.962 207.498 162.263 207.129C162.564 206.749 162.869 206.337 163.177 205.893C163.495 205.439 163.79 204.98 164.061 204.517C164.332 204.055 164.562 203.626 164.75 203.23Z" fill="#5C5C5C"/>
<path d="M153.271 233.19C153.861 232.565 153.838 231.58 153.218 230.982C152.597 230.385 151.612 230.4 151.011 231.014C150.386 230.413 149.393 230.432 148.793 231.056C148.605 231.252 148.478 231.483 148.411 231.727C147.815 231.437 147.077 231.547 146.593 232.05C146.168 232.492 146.054 233.119 146.244 233.661C145.864 233.683 145.492 233.843 145.207 234.139C144.606 234.764 144.625 235.758 145.25 236.359C145.75 236.84 145.948 237.518 145.839 238.155L151.799 238.04C152.022 237.961 152.231 237.831 152.406 237.648C152.89 237.145 152.972 236.402 152.659 235.818C152.9 235.741 153.126 235.606 153.314 235.41C153.915 234.785 153.895 233.791 153.271 233.19Z" stroke="#5C5C5C" stroke-width="1.3" stroke-linecap="round" stroke-linejoin="round"/>
<path d="M150.737 233.56L146.325 238.146" stroke="#5C5C5C" stroke-width="1.3" stroke-linecap="round" stroke-linejoin="round"/>
<path d="M148.607 244.103L145.774 244.157C142.829 244.214 140.396 241.873 140.339 238.928C140.332 238.56 140.625 238.255 140.993 238.248L153.157 238.014C153.525 238.007 153.829 238.299 153.837 238.667C153.893 241.612 151.552 244.046 148.607 244.103Z" stroke="#5C5C5C" stroke-width="1.3" stroke-linecap="round" stroke-linejoin="round"/>
<path d="M142.33 238.222C141.553 237.619 141.046 236.682 141.026 235.622C140.99 233.758 142.472 232.219 144.335 232.183C145.029 232.169 145.678 232.366 146.221 232.715" stroke="#5C5C5C" stroke-width="1.3" stroke-linecap="round" stroke-linejoin="round"/>
<path d="M129.482 267.23C128.521 267.248 127.827 267.079 127.4 266.724C126.982 266.358 126.767 265.858 126.755 265.224C126.747 264.804 126.874 264.372 127.136 263.928C127.398 263.475 127.749 263.02 128.188 262.564C128.637 262.098 129.127 261.631 129.659 261.163C129.076 260.95 128.661 260.72 128.414 260.473C128.166 260.226 128.039 259.929 128.033 259.584C128.028 259.351 128.139 259.069 128.366 258.737C128.593 258.406 128.89 258.065 129.257 257.712C129.623 257.36 130.023 257.03 130.456 256.723C130.898 256.416 131.332 256.164 131.758 255.97C132.183 255.775 132.559 255.674 132.886 255.668C133.129 255.663 133.303 255.725 133.408 255.854C133.522 255.982 133.582 256.158 133.586 256.382C133.589 256.532 133.535 256.659 133.425 256.764C133.325 256.868 133.097 256.924 132.742 256.931C132.677 256.932 132.607 256.933 132.532 256.935C132.467 256.927 132.392 256.919 132.308 256.911C131.819 257.191 131.362 257.489 130.939 257.806C130.516 258.122 130.158 258.446 129.865 258.779C129.582 259.111 129.393 259.432 129.296 259.742C129.503 259.822 129.724 259.906 129.959 259.995C130.203 260.074 130.461 260.158 130.734 260.246C130.936 260.074 131.138 259.907 131.34 259.744C131.542 259.572 131.74 259.401 131.933 259.229C132.612 258.646 133.237 258.111 133.806 257.624C134.385 257.137 134.863 256.745 135.24 256.449C135.626 256.152 135.861 256.002 135.945 256.001C136.01 256 136.072 256.026 136.129 256.081C136.186 256.127 136.215 256.215 136.218 256.346C136.219 256.411 136.119 256.558 135.918 256.786C135.717 257.004 135.442 257.285 135.094 257.628C134.746 257.961 134.347 258.337 133.898 258.757C133.458 259.176 132.995 259.614 132.509 260.072C132.417 260.158 132.321 260.248 132.22 260.343C132.119 260.429 132.023 260.515 131.931 260.601C132.674 260.867 133.25 261.224 133.66 261.674C134.079 262.123 134.296 262.703 134.31 263.412C134.322 264.065 134.143 264.68 133.771 265.256C133.409 265.833 132.867 266.301 132.146 266.66C131.425 267.019 130.537 267.209 129.482 267.23ZM130.913 261.531C130.408 261.989 129.94 262.427 129.51 262.846C129.088 263.256 128.75 263.64 128.496 264C128.241 264.36 128.117 264.679 128.122 264.959C128.129 265.314 128.247 265.596 128.475 265.807C128.712 266.007 129.134 266.102 129.74 266.09C130.17 266.082 130.584 266.004 130.982 265.856C131.39 265.699 131.755 265.491 132.076 265.233C132.398 264.966 132.649 264.671 132.829 264.35C133.019 264.02 133.111 263.682 133.104 263.337C133.095 262.898 132.892 262.534 132.495 262.243C132.097 261.942 131.57 261.705 130.913 261.531ZM137.506 266.781C137.3 266.785 137.099 266.723 136.9 266.596C136.711 266.469 136.613 266.257 136.608 265.958C136.603 265.715 136.66 265.518 136.778 265.367C136.897 265.215 137.035 265.105 137.192 265.036C137.349 264.959 137.489 264.919 137.61 264.916C137.731 264.914 137.867 264.939 138.017 264.993C138.177 265.046 138.314 265.141 138.429 265.279C138.543 265.407 138.603 265.602 138.608 265.863C138.613 266.125 138.505 266.341 138.285 266.514C138.064 266.686 137.804 266.775 137.506 266.781ZM145.692 266.595C145.122 266.606 144.592 266.471 144.101 266.192C143.62 265.902 143.229 265.476 142.929 264.912C142.628 264.348 142.47 263.656 142.454 262.835C142.441 262.116 142.544 261.423 142.764 260.756C142.994 260.089 143.249 259.51 143.529 259.019C143.416 258.956 143.357 258.803 143.352 258.561C143.346 258.234 143.433 257.91 143.614 257.589C143.803 257.259 144.054 256.96 144.366 256.693C144.688 256.425 145.043 256.208 145.432 256.042C145.83 255.876 146.235 255.788 146.645 255.781C147.298 255.768 147.871 255.925 148.363 256.252C148.864 256.569 149.255 257.014 149.537 257.587C149.828 258.16 149.98 258.82 149.995 259.567C150.014 260.565 149.915 261.491 149.698 262.345C149.481 263.189 149.173 263.928 148.775 264.561C148.386 265.194 147.924 265.688 147.389 266.044C146.864 266.4 146.298 266.583 145.692 266.595ZM145.155 257.644C145.249 257.689 145.297 257.762 145.299 257.865C145.3 257.912 145.287 257.968 145.26 258.034C145.243 258.09 145.184 258.18 145.084 258.303C144.946 258.455 144.802 258.705 144.65 259.054C144.498 259.402 144.352 259.802 144.211 260.252C144.07 260.703 143.958 261.172 143.874 261.659C143.79 262.137 143.752 262.59 143.76 263.02C143.775 263.785 143.94 264.365 144.256 264.76C144.571 265.146 144.995 265.334 145.527 265.324C145.938 265.316 146.336 265.168 146.723 264.881C147.109 264.584 147.456 264.181 147.764 263.67C148.071 263.151 148.311 262.554 148.485 261.878C148.668 261.203 148.752 260.473 148.737 259.689C148.727 259.148 148.638 258.673 148.471 258.266C148.305 257.858 148.079 257.541 147.795 257.313C147.52 257.085 147.205 256.974 146.85 256.981C146.477 256.988 146.152 257.055 145.874 257.182C145.596 257.308 145.357 257.462 145.155 257.644ZM154.262 267.2C154.159 267.202 154.07 267.166 153.994 267.093C153.918 267.02 153.878 266.918 153.876 266.787C153.871 266.535 153.989 266.141 154.231 265.604C154.473 265.067 154.801 264.436 155.217 263.709C155.632 262.973 156.097 262.184 156.613 261.343C157.129 260.493 157.658 259.624 158.201 258.736C158.744 257.848 159.269 256.984 159.776 256.144C159.227 256.247 158.679 256.37 158.131 256.511C157.592 256.652 157.086 256.788 156.612 256.919C156.139 257.049 155.735 257.16 155.4 257.25C155.066 257.331 154.829 257.373 154.689 257.376C154.418 257.381 154.23 257.329 154.125 257.219C154.03 257.108 153.981 256.974 153.978 256.815C153.975 256.685 154.099 256.552 154.348 256.416C154.597 256.281 154.926 256.148 155.335 256.019C155.743 255.881 156.183 255.751 156.657 255.63C157.14 255.508 157.61 255.401 158.065 255.308C158.53 255.215 158.94 255.142 159.293 255.089C159.647 255.035 159.903 255.007 160.062 255.004C160.239 255 160.413 255.039 160.582 255.12C160.752 255.201 160.894 255.31 161.009 255.448C161.133 255.585 161.196 255.733 161.199 255.892C161.201 255.967 161.116 256.178 160.945 256.527C160.784 256.876 160.555 257.323 160.257 257.871C159.969 258.418 159.635 259.021 159.256 259.682C158.886 260.343 158.493 261.023 158.077 261.721C157.67 262.42 157.263 263.1 156.856 263.761C156.449 264.413 156.063 265.009 155.7 265.548C155.347 266.087 155.033 266.522 154.759 266.854C154.695 266.93 154.622 267.006 154.54 267.083C154.457 267.159 154.364 267.198 154.262 267.2ZM162.264 269.79C161.546 269.804 161.017 269.744 160.679 269.611C160.34 269.477 160.168 269.294 160.164 269.06C160.161 268.911 160.205 268.789 160.297 268.694C160.398 268.599 160.523 268.549 160.672 268.547C160.831 268.544 161.06 268.562 161.359 268.603C161.659 268.654 161.953 268.676 162.243 268.67C163.204 268.652 163.987 268.352 164.592 267.771C165.197 267.19 165.651 266.308 165.955 265.126C166.259 263.935 166.449 262.419 166.526 260.578C166.257 261.153 165.95 261.728 165.607 262.304C165.272 262.871 164.909 263.391 164.517 263.866C164.133 264.33 163.735 264.707 163.32 264.995C162.906 265.283 162.493 265.431 162.082 265.439C161.691 265.446 161.399 265.354 161.209 265.162C161.028 264.969 160.933 264.649 160.924 264.201C160.917 263.8 161.02 263.373 161.236 262.921C161.451 262.459 161.741 261.996 162.105 261.532C162.47 261.067 162.872 260.625 163.312 260.206C163.752 259.778 164.192 259.4 164.634 259.074C165.085 258.739 165.505 258.474 165.893 258.28C166.282 258.086 166.597 257.986 166.84 257.982C167.082 257.977 167.27 258.057 167.404 258.223C167.538 258.388 167.61 258.704 167.619 259.171C167.64 260.263 167.623 261.327 167.568 262.365C167.523 263.392 167.406 264.351 167.218 265.242C167.029 266.132 166.736 266.913 166.339 267.583C165.95 268.263 165.424 268.796 164.759 269.182C164.094 269.568 163.263 269.771 162.264 269.79ZM166.247 259.211C165.786 259.519 165.312 259.864 164.825 260.247C164.338 260.63 163.883 261.035 163.462 261.463C163.05 261.892 162.718 262.332 162.465 262.785C162.213 263.238 162.091 263.688 162.099 264.136C162.102 264.276 162.192 264.345 162.369 264.341C162.509 264.338 162.699 264.227 162.937 264.008C163.185 263.779 163.459 263.48 163.76 263.11C164.061 262.731 164.365 262.319 164.674 261.874C164.992 261.42 165.287 260.962 165.558 260.499C165.829 260.036 166.059 259.607 166.247 259.211Z" fill="#5C5C5C"/>
<path d="M38.9768 78.435C38.9832 78.7683 38.9897 79.1016 38.9961 79.4348C40.1633 79.4492 41.3304 79.4614 42.4975 79.4717C51.8965 79.5543 61.293 79.5051 70.687 79.324C82.2891 79.1003 93.8886 78.7391 105.485 78.2402C106.651 78.1901 107.817 78.1385 108.983 78.0856C108.977 77.7523 108.97 77.4191 108.964 77.0858C107.797 77.0778 106.63 77.0713 105.463 77.0661C93.8554 77.0146 82.2506 77.1007 70.6485 77.3244C61.2545 77.5055 51.863 77.8184 42.4742 78.2632C41.3083 78.3185 40.1426 78.3757 38.9768 78.435Z" fill="#C1DBBB"/>
<path d="M39.343 97.4315C39.3495 97.7647 39.3559 98.098 39.3623 98.4313C39.9122 98.4207 40.4621 98.4101 41.012 98.3995C45.4406 98.3141 49.8692 98.2287 54.2978 98.1434C59.7673 98.0379 65.2369 97.9325 70.7065 97.827C71.2564 97.8164 71.8063 97.8058 72.3562 97.7952C72.3498 97.462 72.3433 97.1287 72.3369 96.7954C71.787 96.806 71.2371 96.8166 70.6872 96.8272C65.2176 96.9327 59.7481 97.0381 54.2785 97.1435C49.8499 97.2289 45.4213 97.3143 40.9927 97.3997C40.4428 97.4103 39.8929 97.4209 39.343 97.4315Z" fill="#C1DBBB"/>
<path d="M39.7092 116.428C39.7157 116.761 39.7221 117.094 39.7285 117.428C40.8957 117.442 42.0628 117.454 43.2299 117.465C52.6289 117.547 62.0255 117.498 71.4194 117.317C83.0215 117.093 94.621 116.732 106.218 116.233C107.384 116.183 108.55 116.131 109.716 116.079C109.709 115.745 109.703 115.412 109.696 115.079C108.529 115.071 107.362 115.064 106.195 115.059C94.5878 115.008 82.983 115.094 71.3809 115.317C61.9869 115.498 52.5955 115.811 43.2066 116.256C42.0408 116.311 40.875 116.369 39.7092 116.428Z" fill="#C1DBBB"/>
<path d="M40.0755 135.424C40.0819 135.758 40.0883 136.091 40.0947 136.424C40.8786 136.446 41.6625 136.466 42.4463 136.483C48.7588 136.625 55.0687 136.636 61.3761 136.514C69.1661 136.364 76.9534 136.076 84.7381 135.651C85.5208 135.608 86.3034 135.564 87.086 135.518C87.0796 135.185 87.0731 134.852 87.0667 134.518C86.2829 134.503 85.4992 134.489 84.7155 134.477C76.9202 134.352 69.1275 134.364 61.3375 134.514C55.0301 134.636 48.7253 134.889 42.423 135.275C41.6404 135.323 40.8579 135.372 40.0755 135.424Z" fill="#C1DBBB"/>
<path d="M40.4417 154.421C40.4481 154.754 40.4545 155.087 40.4609 155.421C41.6281 155.435 42.7952 155.447 43.9623 155.458C53.3614 155.54 62.7579 155.491 72.1519 155.31C83.754 155.086 95.3535 154.725 106.95 154.226C108.116 154.176 109.282 154.124 110.448 154.071C110.442 153.738 110.435 153.405 110.429 153.072C109.262 153.064 108.095 153.057 106.928 153.052C95.3202 153 83.7154 153.087 72.1133 153.31C62.7193 153.491 53.3279 153.804 43.939 154.249C42.7732 154.304 41.6074 154.362 40.4417 154.421Z" fill="#C1DBBB"/>
<path d="M40.8079 173.417C40.8143 173.751 40.8207 174.084 40.8271 174.417C41.377 174.407 41.9269 174.396 42.4768 174.385C46.9054 174.3 51.334 174.215 55.7626 174.129C61.2322 174.024 66.7018 173.918 72.1713 173.813C72.7212 173.802 73.2711 173.792 73.821 173.781C73.8146 173.448 73.8082 173.115 73.8017 172.781C73.2519 172.792 72.702 172.802 72.1521 172.813C66.6825 172.919 61.2129 173.024 55.7433 173.129C51.3147 173.215 46.8862 173.3 42.4576 173.386C41.9077 173.396 41.3578 173.407 40.8079 173.417Z" fill="#C1DBBB"/>
<path d="M41.1741 192.414C41.1805 192.747 41.1869 193.08 41.1934 193.414C42.3605 193.428 43.5276 193.44 44.6947 193.451C54.0938 193.533 63.4903 193.484 72.8843 193.303C84.4864 193.079 96.0859 192.718 107.683 192.219C108.849 192.169 110.014 192.117 111.18 192.064C111.174 191.731 111.168 191.398 111.161 191.065C109.994 191.057 108.827 191.05 107.66 191.045C96.0526 190.993 84.4478 191.08 72.8457 191.303C63.4517 191.484 54.0603 191.797 44.6714 192.242C43.5056 192.297 42.3398 192.355 41.1741 192.414Z" fill="#C1DBBB"/>
<path d="M41.5403 211.41C41.5467 211.744 41.5531 212.077 41.5596 212.41C42.3435 212.432 43.1273 212.452 43.9111 212.469C50.2236 212.611 56.5335 212.622 62.8409 212.5C70.6309 212.35 78.4183 212.062 86.203 211.637C86.9856 211.594 87.7682 211.55 88.5508 211.504C88.5444 211.171 88.538 210.838 88.5316 210.504C87.7478 210.489 86.964 210.475 86.1803 210.463C78.385 210.338 70.5924 210.35 62.8024 210.5C56.495 210.622 50.1901 210.875 43.8878 211.261C43.1053 211.309 42.3228 211.358 41.5403 211.41Z" fill="#C1DBBB"/>
<path d="M41.9065 230.407C41.9129 230.74 41.9194 231.073 41.9258 231.407C42.7097 231.428 43.4935 231.448 44.2774 231.466C50.5898 231.608 56.8997 231.618 63.2071 231.496C70.9971 231.346 78.7845 231.059 86.5692 230.633C87.3518 230.59 88.1344 230.546 88.9171 230.501C88.9106 230.167 88.9042 229.834 88.8978 229.501C88.114 229.486 87.3303 229.472 86.5465 229.459C78.7512 229.334 70.9586 229.347 63.1686 229.497C56.8612 229.618 50.5564 229.872 44.2541 230.257C43.4715 230.305 42.689 230.355 41.9065 230.407Z" fill="#C1DBBB"/>
<path d="M42.2727 249.403C42.2791 249.737 42.2856 250.07 42.292 250.403C43.0759 250.425 43.8597 250.444 44.6436 250.462C50.956 250.604 57.266 250.615 63.5733 250.493C71.3633 250.343 79.1507 250.055 86.9354 249.63C87.718 249.587 88.5007 249.543 89.2833 249.497C89.2768 249.164 89.2704 248.831 89.264 248.497C88.4802 248.482 87.6965 248.468 86.9127 248.456C79.1174 248.331 71.3248 248.343 63.5348 248.493C57.2274 248.615 50.9226 248.868 44.6203 249.254C43.8377 249.301 43.0552 249.351 42.2727 249.403Z" fill="#C1DBBB"/>
<path d="M42.6389 268.4C42.6454 268.733 42.6518 269.066 42.6582 269.4C43.8254 269.414 44.9925 269.426 46.1596 269.436C55.5586 269.519 64.9551 269.47 74.3491 269.289C85.9512 269.065 97.5507 268.704 109.148 268.205C110.313 268.155 111.479 268.103 112.645 268.05C112.639 267.717 112.632 267.384 112.626 267.051C111.459 267.043 110.292 267.036 109.125 267.031C97.5175 266.979 85.9127 267.065 74.3106 267.289C64.9166 267.47 55.5252 267.783 46.1363 268.228C44.9704 268.283 43.8047 268.34 42.6389 268.4Z" fill="#C1DBBB"/>
</svg>
